<?xml version="1.0" encoding="utf-8"?>
<!-- Generator: Adobe Illustrator 22.1.0, SVG Export Plug-In . SVG Version: 6.00 Build 0)  -->
<svg version="1.1" id="Layer_1" xmlns="http://www.w3.org/2000/svg" xmlns:xlink="http://www.w3.org/1999/xlink" x="0px" y="0px"
	 viewBox="0 0 484 141.7" style="enable-background:new 0 0 484 141.7;" xml:space="preserve">
<style type="text/css">
	.st0{fill:#495BC1;}
	.st1{fill:#AFAFAF;}
</style>
<g>
	<g>
		<path class="st0" d="M211.3,77c-0.3,1.3-0.9,2.7-1.7,4.1c-0.9,1.5-1.7,2.5-2.7,3.2c-4.3-0.1-7.6-1.7-9.9-4.8
			c-4,3.7-8.3,5.5-12.9,5.5c-2.4,0-4.5-0.4-6.2-1.1c-1.8-0.8-3.3-1.8-4.5-3.1c-1.2-1.3-2.1-2.8-2.7-4.4c-0.6-1.7-0.9-3.4-0.9-5.3
			c0-2.6,0.5-4.9,1.4-6.9c0.9-2,2.2-3.6,3.9-4.9c1.6-1.3,3.6-2.3,5.8-3c2.2-0.7,4.5-1,7-1c1.4,0,2.6,0,3.7,0c1.1,0,2,0.1,2.8,0.1
			v-1.8c0-3.9-2-5.8-5.9-5.8c-2.6,0-7,1-13.4,3c-1.8-2.1-3-5.5-3.5-10c1.5-0.5,3.1-1.1,4.9-1.6c1.8-0.5,3.6-0.9,5.5-1.3
			c1.9-0.4,3.7-0.7,5.6-0.9c1.8-0.2,3.5-0.3,4.9-0.3c2.1,0,4.2,0.3,6.2,0.9c2,0.6,3.7,1.5,5.2,2.8c1.5,1.2,2.7,2.9,3.6,4.8
			c0.9,2,1.3,4.3,1.3,7.1v18.6C208.8,73.9,209.6,75.9,211.3,77z M183.7,70.2c0,2.9,1.6,4.3,4.9,4.3c1.7,0,3.6-0.9,5.8-2.7v-7.3
			c-1.2-0.1-2.2-0.1-3.1-0.1c-0.8,0-1.4,0-1.9,0C185.6,64.3,183.7,66.3,183.7,70.2z"/>
		<path class="st0" d="M232.3,73.1h2.5c0.7,2,1.1,4.1,1.1,6.1c0,2-0.1,3.3-0.3,4c-3.7,0.6-6.9,0.9-9.8,0.9c-4.1,0-7.1-1-8.8-3.1
			c-1.7-2-2.6-5.3-2.6-9.6V17l0.5-0.6h5.6c2.9,0,4.9,0.6,6,1.9c1.2,1.3,1.7,3.5,1.7,6.7v43.9C228.3,71.7,229.6,73.1,232.3,73.1z"/>
		<path class="st0" d="M255.5,48.5v35.1c-1,0.2-2.2,0.3-3.4,0.4c-1.2,0.1-2.5,0.1-3.7,0.1s-2.5,0-3.8-0.1c-1.3-0.1-2.4-0.2-3.4-0.4
			V53.4c0-3.5-1.4-5.3-4.3-5.3h-1.4c-0.4-1.2-0.5-2.8-0.5-4.8c0-2,0.2-3.7,0.5-5.1c1.6-0.1,3-0.2,4.4-0.3c1.3-0.1,2.6-0.1,3.7-0.1h2
			c3.1,0,5.5,1,7.3,2.9C254.7,42.5,255.5,45.2,255.5,48.5z M239.5,19.6c1.8-1,4.1-1.5,6.9-1.5c2.9,0,5.1,0.5,6.7,1.5
			c0.7,1.6,1.1,3.4,1.1,5.3c0,1.9-0.4,3.7-1.1,5.3c-1.8,0.9-4.1,1.4-6.9,1.4s-5.1-0.5-6.6-1.4c-0.7-1.6-1.1-3.4-1.1-5.3
			C238.4,23,238.8,21.3,239.5,19.6z"/>
		<path class="st0" d="M302.1,77c-0.3,1.3-0.9,2.7-1.7,4.1c-0.9,1.5-1.7,2.5-2.7,3.2c-4.3-0.1-7.6-1.7-9.9-4.8
			c-4,3.7-8.3,5.5-12.9,5.5c-2.4,0-4.5-0.4-6.2-1.1c-1.8-0.8-3.3-1.8-4.5-3.1c-1.2-1.3-2.1-2.8-2.7-4.4c-0.6-1.7-0.9-3.4-0.9-5.3
			c0-2.6,0.5-4.9,1.4-6.9c0.9-2,2.2-3.6,3.9-4.9c1.6-1.3,3.6-2.3,5.8-3c2.2-0.7,4.5-1,7-1c1.4,0,2.6,0,3.7,0c1.1,0,2,0.1,2.8,0.1
			v-1.8c0-3.9-2-5.8-5.9-5.8c-2.6,0-7,1-13.4,3c-1.8-2.1-3-5.5-3.5-10c1.5-0.5,3.1-1.1,4.9-1.6c1.8-0.5,3.6-0.9,5.5-1.3
			c1.9-0.4,3.7-0.7,5.6-0.9c1.8-0.2,3.5-0.3,4.9-0.3c2.1,0,4.2,0.3,6.2,0.9c2,0.6,3.7,1.5,5.2,2.8c1.5,1.2,2.7,2.9,3.6,4.8
			c0.9,2,1.3,4.3,1.3,7.1v18.6C299.5,73.9,300.4,75.9,302.1,77z M274.5,70.2c0,2.9,1.6,4.3,4.9,4.3c1.7,0,3.6-0.9,5.8-2.7v-7.3
			c-1.2-0.1-2.2-0.1-3.1-0.1c-0.8,0-1.4,0-1.9,0C276.4,64.3,274.5,66.3,274.5,70.2z"/>
		<path class="st0" d="M304.6,80.5c0.1-1.6,0.5-3.3,1.2-5.2c0.8-1.9,1.7-3.4,2.7-4.5c4.9,2.6,9.1,3.8,12.7,3.8c1.7,0,3-0.3,3.9-0.9
			c0.9-0.6,1.4-1.4,1.4-2.3c0-1.8-1.4-3.2-4.2-4.1l-5-1.9c-7.6-2.8-11.4-7.4-11.4-13.7c0-4.6,1.6-8.3,4.8-11
			c3.2-2.7,7.5-4.1,12.9-4.1c2.7,0,5.6,0.4,8.9,1.1c3.2,0.8,5.9,1.7,8,2.7c0.1,1.7-0.2,3.6-1,5.6c-0.8,2-1.8,3.5-2.9,4.3
			c-5.1-2.3-9.4-3.5-12.8-3.5c-1.2,0-2.1,0.3-2.8,0.8c-0.6,0.5-1,1.2-1,2.1c0,1.5,1.2,2.6,3.5,3.5l5.7,2c8.1,2.9,12.2,7.8,12.2,14.7
			c0,4.6-1.7,8.2-5,10.9c-3.4,2.7-8.1,4-14.4,4S309.9,83.5,304.6,80.5z"/>
	</g>
	<g>
		<path class="st1" d="M371.1,84.5c-2.8,0-5.6-0.6-8.4-1.9v12.2c0,3.2-0.6,5.4-1.7,6.7c-1.2,1.3-3.2,1.9-6.1,1.9h-5.5l-0.6-0.6V38
			l0.6-0.6h3.7c3.5,0,6.1,1.5,7.8,4.5c3.5-3.5,7.7-5.2,12.7-5.2c2.6,0,4.8,0.6,6.7,1.7c1.9,1.1,3.6,2.7,5,4.8
			c1.4,2.1,2.4,4.6,3.1,7.5c0.7,2.9,1,6.2,1,9.9c0,3.7-0.5,7-1.4,10c-0.9,3-2.2,5.5-3.9,7.6c-1.6,2.1-3.6,3.7-5.8,4.8
			C376.1,84,373.7,84.5,371.1,84.5z M369.4,48.1c-2.6,0-4.8,1.2-6.7,3.7v20.1c2.3,1.4,4.3,2.1,5.9,2.1c4.1,0,6.2-4.6,6.2-13.8
			C374.9,52.1,373.1,48.1,369.4,48.1z"/>
		<path class="st1" d="M433.7,77c-0.3,1.3-0.9,2.7-1.7,4.1c-0.9,1.5-1.7,2.5-2.7,3.2c-4.3-0.1-7.6-1.7-9.9-4.8
			c-4,3.7-8.3,5.5-12.9,5.5c-2.4,0-4.5-0.4-6.2-1.1c-1.8-0.8-3.3-1.8-4.5-3.1c-1.2-1.3-2.1-2.8-2.7-4.4c-0.6-1.7-0.9-3.4-0.9-5.3
			c0-2.6,0.5-4.9,1.4-6.9c0.9-2,2.2-3.6,3.9-4.9c1.6-1.3,3.6-2.3,5.8-3c2.2-0.7,4.5-1,7-1c1.4,0,2.6,0,3.7,0c1.1,0,2,0.1,2.8,0.1
			v-1.8c0-3.9-2-5.8-5.9-5.8c-2.6,0-7,1-13.4,3c-1.8-2.1-3-5.5-3.5-10c1.5-0.5,3.1-1.1,4.9-1.6c1.8-0.5,3.6-0.9,5.5-1.3
			c1.9-0.4,3.7-0.7,5.6-0.9c1.8-0.2,3.5-0.3,4.9-0.3c2.1,0,4.2,0.3,6.2,0.9c2,0.6,3.7,1.5,5.2,2.8c1.5,1.2,2.7,2.9,3.6,4.8
			c0.9,2,1.3,4.3,1.3,7.1v18.6C431.1,73.9,432,75.9,433.7,77z M406.1,70.2c0,2.9,1.6,4.3,4.9,4.3c1.7,0,3.6-0.9,5.8-2.7v-7.3
			c-1.2-0.1-2.2-0.1-3.1-0.1c-0.8,0-1.4,0-1.9,0C408,64.3,406.1,66.3,406.1,70.2z"/>
		<path class="st1" d="M477.2,39.5l-11.2,43c-1.8,6.6-4.1,11.6-7,15.2c-3.4,4-8.5,6-15.5,6c-3.7,0-7.4-0.6-11.1-1.8
			c-0.2-1.6,0-3.5,0.5-5.5c0.5-2,1.3-3.6,2.3-4.7c2.7,0.9,5.5,1.4,8.2,1.4c4.5,0,7.5-2.5,9-7.4l0.4-1.3c-5.3,0-8.5-1.9-9.5-5.8
			l-10.6-39.4c2.8-1.3,5.4-1.9,7.9-1.9c2.4,0,4.2,0.5,5.3,1.4c1.1,0.9,2,2.5,2.5,4.8l4.2,17.6c0.4,1.6,1.1,5.7,2.1,12.1
			c0.1,0.4,0.3,0.6,0.7,0.6l8-35.5c1.5-0.4,3.4-0.6,5.9-0.6c2.8,0,5.2,0.3,7.3,1L477.2,39.5z"/>
	</g>
	<g>
		<path class="st0" d="M75.6,61.6L75,73.7h7.2l-0.6-12.1c1.6-1,2.6-2.7,2.6-4.7c0-3.1-2.5-5.6-5.6-5.6c-3.1,0-5.6,2.5-5.6,5.6
			C73,58.9,74.1,60.6,75.6,61.6z"/>
		<path class="st0" d="M112.4,13.3H44.2c-8.8,0-16.1,6.5-17.4,14.9C20.5,30.6,16,36.7,16,43.8v39.1c0,9.3,7.6,16.8,16.8,16.8H101
			c7.9,0,14.6-5.5,16.3-12.9c7.3-2.2,12.6-8.9,12.6-16.9V30.9C130,21.2,122.1,13.3,112.4,13.3z M122,70c0,5.3-4.3,9.6-9.6,9.6H44.2
			c-5.3,0-9.6-4.3-9.6-9.6V45.7H122V70z M122,31.5H34.6v-0.6c0-5.3,4.3-9.6,9.6-9.6h68.2c5.3,0,9.6,4.3,9.6,9.6V31.5z"/>
	</g>
	<g>
		<path class="st1" d="M283.6,128.2c0.1-0.6,0.3-1.2,0.9-1.6c1.4,0.9,2.7,1.3,4,1.3c0.8,0,1.4-0.2,1.8-0.5c0.5-0.3,0.7-0.8,0.7-1.3
			c0-0.9-0.6-1.6-1.8-2.1l-2.3-1c-1.8-0.8-2.7-1.9-2.7-3.4c0-0.5,0.1-1,0.3-1.5s0.5-0.9,0.9-1.2c0.4-0.4,0.9-0.6,1.4-0.8
			s1.2-0.3,1.8-0.3c1.4,0,2.7,0.3,4.1,1c0,0.6-0.3,1.2-0.8,1.6c-1.3-0.6-2.4-0.9-3.4-0.9c-0.7,0-1.3,0.2-1.7,0.5
			c-0.4,0.3-0.7,0.8-0.7,1.2c0,0.5,0.1,0.9,0.4,1.1c0.3,0.3,0.7,0.5,1.2,0.7l2.3,1c1,0.4,1.7,0.9,2.2,1.5c0.5,0.6,0.7,1.3,0.7,2.1
			c0,1.2-0.4,2.1-1.2,2.9s-2.1,1.1-3.7,1.1C286.5,129.7,285,129.2,283.6,128.2z"/>
		<path class="st1" d="M302.7,125.2h-5.8c0,0.9,0.2,1.6,0.6,2.1c0.3,0.5,0.9,0.7,1.8,0.7c0.4,0,0.8-0.1,1.3-0.2
			c0.5-0.1,0.9-0.3,1.4-0.6c0.3,0.3,0.5,0.7,0.7,1.3c-1.1,0.7-2.3,1.1-3.7,1.1c-0.7,0-1.4-0.1-1.9-0.4c-0.5-0.3-0.9-0.6-1.3-1.1
			c-0.3-0.5-0.6-1-0.7-1.6c-0.1-0.6-0.2-1.3-0.2-2.1c0-0.7,0.1-1.4,0.3-2c0.2-0.6,0.4-1.2,0.8-1.6c0.3-0.4,0.8-0.8,1.3-1.1
			c0.5-0.3,1.1-0.4,1.7-0.4s1.2,0.1,1.7,0.3c0.5,0.2,0.9,0.5,1.3,0.9c0.3,0.4,0.6,0.8,0.8,1.3c0.2,0.5,0.3,1.1,0.3,1.7
			c0,0.3,0,0.5,0,0.8S302.8,124.9,302.7,125.2z M298.9,121c-1.2,0-1.9,0.9-2,2.8h4v-0.3c0-0.7-0.2-1.4-0.5-1.8
			C300.1,121.2,299.6,121,298.9,121z"/>
		<path class="st1" d="M310.5,123.5v-0.2c0-1.5-0.6-2.2-1.7-2.2c-0.6,0-1.1,0.3-1.5,0.9s-0.5,1.5-0.5,2.7c0,2.3,0.7,3.4,2.2,3.4
			c0.7,0,1.5-0.3,2.4-1c0.2,0.1,0.4,0.3,0.5,0.5c0.2,0.2,0.3,0.5,0.3,0.7c-1,1-2.1,1.5-3.5,1.5c-0.7,0-1.3-0.1-1.8-0.4
			c-0.5-0.3-0.9-0.6-1.3-1.1c-0.3-0.5-0.6-1-0.7-1.7c-0.2-0.6-0.2-1.4-0.2-2.1c0-0.8,0.1-1.5,0.3-2.1s0.5-1.1,0.9-1.6
			c0.4-0.4,0.8-0.7,1.3-1c0.5-0.2,1-0.3,1.6-0.3c0.6,0,1.1,0.1,1.5,0.3c0.4,0.2,0.8,0.4,1.1,0.7c0.3,0.3,0.5,0.6,0.7,1
			s0.2,0.7,0.2,1.1c0,0.7-0.3,1.1-1,1.1C311,123.5,310.7,123.5,310.5,123.5z"/>
		<path class="st1" d="M314.6,126.4v-4.6c0-0.8-0.1-1.4-0.3-1.8c0.3-0.3,0.8-0.4,1.3-0.4c0.7,0,1.1,0.4,1.1,1.3v5
			c0,0.7,0.1,1.2,0.3,1.5c0.2,0.3,0.5,0.4,0.9,0.4s0.9-0.1,1.3-0.3c0.4-0.2,0.8-0.5,1.2-0.9v-6.9c0.4-0.1,0.7-0.1,1-0.1
			c0.3,0,0.7,0,1,0.1v7c0,0.9,0.2,1.5,0.6,1.9c-0.1,0.5-0.4,0.8-0.8,1c-0.8-0.1-1.4-0.6-1.7-1.4c-1,1-2.1,1.5-3.3,1.5
			c-0.9,0-1.5-0.3-2-0.9C314.8,128.1,314.6,127.3,314.6,126.4z"/>
		<path class="st1" d="M324.9,120.6c0.1-0.5,0.4-0.8,0.7-1.1c0.9,0.2,1.5,0.8,1.8,1.8c0.5-1.2,1.4-1.8,2.6-1.8c0.3,0,0.7,0,1,0.1
			c0,0.8-0.2,1.4-0.5,1.9c-0.1,0-0.4-0.1-0.8-0.1c-0.9,0-1.6,0.5-2.1,1.5v6.4c-0.2,0.1-0.6,0.1-1,0.1c-0.4,0-0.8,0-1-0.1v-6.8
			C325.6,121.8,325.4,121.1,324.9,120.6z"/>
		<path class="st1" d="M339.5,125.2h-5.8c0,0.9,0.2,1.6,0.6,2.1c0.3,0.5,0.9,0.7,1.8,0.7c0.4,0,0.8-0.1,1.3-0.2
			c0.5-0.1,0.9-0.3,1.4-0.6c0.3,0.3,0.5,0.7,0.7,1.3c-1.1,0.7-2.3,1.1-3.7,1.1c-0.7,0-1.4-0.1-1.9-0.4c-0.5-0.3-0.9-0.6-1.3-1.1
			c-0.3-0.5-0.6-1-0.7-1.6c-0.1-0.6-0.2-1.3-0.2-2.1c0-0.7,0.1-1.4,0.3-2c0.2-0.6,0.4-1.2,0.8-1.6c0.3-0.4,0.8-0.8,1.3-1.1
			c0.5-0.3,1.1-0.4,1.7-0.4s1.2,0.1,1.7,0.3c0.5,0.2,0.9,0.5,1.3,0.9c0.3,0.4,0.6,0.8,0.8,1.3c0.2,0.5,0.3,1.1,0.3,1.7
			c0,0.3,0,0.5,0,0.8S339.6,124.9,339.5,125.2z M335.7,121c-1.2,0-1.9,0.9-2,2.8h4v-0.3c0-0.7-0.2-1.4-0.5-1.8
			C336.9,121.2,336.4,121,335.7,121z"/>
		<path class="st1" d="M354.7,128.5c-0.2,0.2-0.4,0.3-0.7,0.4c-0.3,0.1-0.6,0.2-0.9,0.3c-0.3,0.1-0.6,0.2-1,0.2s-0.6,0.1-0.9,0.1
			c-0.3,0-0.8,0-1.5,0c-0.7,0-1.6,0-2.8-0.1l-0.1-0.1v-13.2l0.1-0.1c1.1,0,2.6-0.1,4.3-0.1c1.1,0,2,0.2,2.7,0.5
			c0.7,0.4,1.3,0.8,1.7,1.5c0.4,0.6,0.7,1.3,0.9,2.2c0.2,0.8,0.3,1.7,0.3,2.7c0,1.3-0.1,2.4-0.4,3.4
			C356,127,355.5,127.9,354.7,128.5z M351.2,117.6h-2.4v10.2h2.4c2.2,0,3.4-1.7,3.4-5.1c0-1.8-0.3-3.1-0.8-3.9
			C353.2,118,352.3,117.6,351.2,117.6z"/>
		<path class="st1" d="M361.6,121.4v8c-0.2,0.1-0.6,0.1-1,0.1c-0.4,0-0.8,0-1-0.1v-7.2c0-0.4-0.1-0.6-0.2-0.8
			c-0.1-0.2-0.4-0.2-0.7-0.2h-0.2c-0.1-0.3-0.1-0.5-0.1-0.7s0-0.4,0.1-0.7c0.4-0.1,0.8-0.1,1.2-0.1h0.3c0.5,0,0.9,0.2,1.2,0.5
			C361.4,120.4,361.6,120.8,361.6,121.4z M359.1,117.9c-0.1-0.2-0.2-0.5-0.2-0.9c0-0.5,0.1-0.9,0.3-1s0.5-0.2,1-0.2
			c0.5,0,0.9,0.1,1,0.2c0.1,0.1,0.2,0.4,0.2,0.9c0,0.5-0.1,0.8-0.2,0.9c-0.1,0.1-0.5,0.2-1,0.2C359.7,118.1,359.3,118,359.1,117.9z"
			/>
		<path class="st1" d="M370.4,120.5c0.3-0.5,0.7-0.8,1.4-0.9c0.2,0.1,0.3,0.3,0.5,0.5c0.2,0.2,0.2,0.4,0.3,0.6
			c-0.4,0.4-0.6,1-0.6,1.9v5.8c0,1-0.1,1.9-0.2,2.6c-0.2,0.7-0.4,1.3-0.8,1.7s-0.8,0.7-1.3,0.9c-0.5,0.2-1.2,0.3-1.9,0.3
			c-1.2,0-2.3-0.2-3.4-0.7c0-0.6,0.2-1.1,0.5-1.5c0.8,0.4,1.7,0.6,2.7,0.6c0.9,0,1.6-0.2,1.9-0.7s0.5-1.2,0.5-2v-0.9
			c-0.8,0.7-1.7,1.1-2.7,1.1c-1,0-1.8-0.5-2.4-1.4c-0.6-0.9-0.9-2.2-0.9-3.7c0-0.8,0.1-1.5,0.3-2.1s0.5-1.2,0.8-1.6
			c0.4-0.4,0.8-0.8,1.2-1c0.5-0.2,0.9-0.3,1.4-0.3C368.8,119.4,369.7,119.8,370.4,120.5z M370,126.7v-4.8c-0.7-0.6-1.3-0.9-1.9-0.9
			s-1.1,0.3-1.5,0.9c-0.4,0.6-0.6,1.5-0.6,2.6c0,1.1,0.2,2,0.5,2.5s0.8,0.8,1.3,0.8C368.6,127.9,369.3,127.5,370,126.7z"/>
		<path class="st1" d="M377.3,121.4v8c-0.2,0.1-0.6,0.1-1,0.1c-0.4,0-0.8,0-1-0.1v-7.2c0-0.4-0.1-0.6-0.2-0.8
			c-0.1-0.2-0.4-0.2-0.7-0.2h-0.2c-0.1-0.3-0.1-0.5-0.1-0.7s0-0.4,0.1-0.7c0.4-0.1,0.8-0.1,1.2-0.1h0.3c0.5,0,0.9,0.2,1.2,0.5
			C377.1,120.4,377.3,120.8,377.3,121.4z M374.8,117.9c-0.1-0.2-0.2-0.5-0.2-0.9c0-0.5,0.1-0.9,0.3-1s0.5-0.2,1-0.2
			c0.5,0,0.9,0.1,1,0.2c0.1,0.1,0.2,0.4,0.2,0.9c0,0.5-0.1,0.8-0.2,0.9c-0.1,0.1-0.5,0.2-1,0.2C375.4,118.1,375,118,374.8,117.9z"/>
		<path class="st1" d="M385,119.7c0.1,0.2,0.1,0.5,0.1,0.8s0,0.5-0.1,0.7l-2.4,0v5.9c0,0.6,0.3,0.9,0.8,0.9h1.4
			c0.1,0.3,0.2,0.6,0.2,0.9c0,0.3,0,0.5,0,0.6c-0.8,0.1-1.5,0.1-2.2,0.1c-1.4,0-2.1-0.7-2.1-2v-6.3l-1.5,0c-0.1-0.2-0.1-0.5-0.1-0.7
			s0-0.5,0.1-0.8l1.5,0V118c0-0.5,0.1-0.8,0.2-1c0.2-0.2,0.4-0.3,0.8-0.3h0.8l0.1,0.1v2.9L385,119.7z"/>
		<path class="st1" d="M394.7,128.5c-0.2,0.5-0.4,0.8-0.8,1c-0.8-0.1-1.3-0.6-1.6-1.2c-0.9,0.9-1.9,1.3-2.9,1.3
			c-0.5,0-0.9-0.1-1.3-0.2c-0.4-0.2-0.7-0.4-0.9-0.6c-0.3-0.3-0.4-0.6-0.6-0.9c-0.1-0.3-0.2-0.7-0.2-1.1c0-1.1,0.3-1.9,1-2.4
			c0.7-0.6,1.6-0.8,2.7-0.8c0.3,0,0.7,0,1,0s0.6,0.1,0.9,0.1v-0.8c0-1.2-0.5-1.8-1.6-1.8c-0.7,0-1.8,0.3-3.1,0.8
			c-0.4-0.3-0.6-0.8-0.6-1.5c1.3-0.6,2.7-0.9,4.1-0.9c1,0,1.8,0.3,2.4,0.8c0.6,0.5,0.8,1.4,0.8,2.5v4
			C394.1,127.6,394.3,128.2,394.7,128.5z M389.8,128.1c0.8,0,1.6-0.4,2.3-1.2V125c-0.3,0-0.5,0-0.8-0.1c-0.3,0-0.6,0-0.9,0
			c-0.6,0-1.1,0.1-1.4,0.4s-0.5,0.7-0.5,1.2c0,0.5,0.1,0.8,0.4,1.1C389,127.9,389.4,128.1,389.8,128.1z"/>
		<path class="st1" d="M399.9,127.9h0.7c0.1,0.3,0.2,0.6,0.2,0.9s0,0.5-0.1,0.6c-0.5,0.1-1.1,0.1-1.7,0.1c-1.3,0-2-0.7-2-2v-12.4
			l0.1-0.1h0.8c0.4,0,0.7,0.1,0.9,0.3c0.2,0.2,0.2,0.5,0.2,1V127C399.1,127.6,399.3,127.9,399.9,127.9z"/>
		<path class="st1" d="M408.8,128.5l-2.5-12.4c0.4-0.2,0.8-0.3,1.1-0.3s0.6,0.1,0.8,0.2c0.2,0.2,0.3,0.5,0.4,0.9l1.2,6.7
			c0.3,1.7,0.5,2.9,0.6,3.8c0,0.2,0.1,0.2,0.2,0.2l2.1-11.5c0.4-0.1,0.9-0.1,1.4-0.1c0.5,0,0.9,0,1.3,0.1l2,11.2
			c0,0.2,0.1,0.2,0.2,0.2c0.1-0.9,0.4-2.3,0.7-4.1l1.5-7.7c0.3-0.1,0.6-0.1,0.9-0.1c0.4,0,0.7,0,1,0.1l0.1,0.1l-2.8,13.3
			c-0.5,0.1-1,0.1-1.6,0.1c-0.6,0-0.9-0.1-1.1-0.2s-0.4-0.4-0.4-0.8l-0.9-5.3c-0.3-1.9-0.6-3.6-0.8-4.9H414
			c-0.3,1.7-0.6,3.3-0.9,4.9l-1.2,6.2c-0.6,0.1-1.1,0.1-1.6,0.1c-0.5,0-0.9-0.1-1.1-0.2S408.9,128.9,408.8,128.5z"/>
		<path class="st1" d="M430.8,128.5c-0.2,0.5-0.4,0.8-0.8,1c-0.8-0.1-1.3-0.6-1.6-1.2c-0.9,0.9-1.9,1.3-2.9,1.3
			c-0.5,0-0.9-0.1-1.3-0.2c-0.4-0.2-0.7-0.4-0.9-0.6c-0.3-0.3-0.4-0.6-0.6-0.9c-0.1-0.3-0.2-0.7-0.2-1.1c0-1.1,0.3-1.9,1-2.4
			c0.7-0.6,1.6-0.8,2.7-0.8c0.3,0,0.7,0,1,0s0.6,0.1,0.9,0.1v-0.8c0-1.2-0.5-1.8-1.6-1.8c-0.7,0-1.8,0.3-3.1,0.8
			c-0.4-0.3-0.6-0.8-0.6-1.5c1.3-0.6,2.7-0.9,4.1-0.9c1,0,1.8,0.3,2.4,0.8c0.6,0.5,0.8,1.4,0.8,2.5v4
			C430.2,127.6,430.4,128.2,430.8,128.5z M425.9,128.1c0.8,0,1.6-0.4,2.3-1.2V125c-0.3,0-0.5,0-0.8-0.1c-0.3,0-0.6,0-0.9,0
			c-0.6,0-1.1,0.1-1.4,0.4s-0.5,0.7-0.5,1.2c0,0.5,0.1,0.8,0.4,1.1C425.2,127.9,425.5,128.1,425.9,128.1z"/>
		<path class="st1" d="M436,127.9h0.7c0.1,0.3,0.2,0.6,0.2,0.9s0,0.5-0.1,0.6c-0.5,0.1-1.1,0.1-1.7,0.1c-1.3,0-2-0.7-2-2v-12.4
			l0.1-0.1h0.8c0.4,0,0.7,0.1,0.9,0.3c0.2,0.2,0.2,0.5,0.2,1V127C435.2,127.6,435.5,127.9,436,127.9z"/>
		<path class="st1" d="M441.6,127.9h0.7c0.1,0.3,0.2,0.6,0.2,0.9s0,0.5-0.1,0.6c-0.5,0.1-1.1,0.1-1.7,0.1c-1.3,0-2-0.7-2-2v-12.4
			l0.1-0.1h0.8c0.4,0,0.7,0.1,0.9,0.3c0.2,0.2,0.2,0.5,0.2,1V127C440.8,127.6,441,127.9,441.6,127.9z"/>
		<path class="st1" d="M451.6,125.2h-5.8c0,0.9,0.2,1.6,0.6,2.1c0.3,0.5,0.9,0.7,1.8,0.7c0.4,0,0.8-0.1,1.3-0.2
			c0.5-0.1,0.9-0.3,1.4-0.6c0.3,0.3,0.5,0.7,0.7,1.3c-1.1,0.7-2.3,1.1-3.7,1.1c-0.7,0-1.4-0.1-1.9-0.4c-0.5-0.3-0.9-0.6-1.3-1.1
			c-0.3-0.5-0.6-1-0.7-1.6c-0.1-0.6-0.2-1.3-0.2-2.1c0-0.7,0.1-1.4,0.3-2c0.2-0.6,0.4-1.2,0.8-1.6c0.3-0.4,0.8-0.8,1.3-1.1
			c0.5-0.3,1.1-0.4,1.7-0.4s1.2,0.1,1.7,0.3c0.5,0.2,0.9,0.5,1.3,0.9c0.3,0.4,0.6,0.8,0.8,1.3c0.2,0.5,0.3,1.1,0.3,1.7
			c0,0.3,0,0.5,0,0.8S451.7,124.9,451.6,125.2z M447.8,121c-1.2,0-1.9,0.9-2,2.8h4v-0.3c0-0.7-0.2-1.4-0.5-1.8
			C449,121.2,448.5,121,447.8,121z"/>
		<path class="st1" d="M459.1,119.7c0.1,0.2,0.1,0.5,0.1,0.8s0,0.5-0.1,0.7l-2.4,0v5.9c0,0.6,0.3,0.9,0.8,0.9h1.4
			c0.1,0.3,0.2,0.6,0.2,0.9c0,0.3,0,0.5,0,0.6c-0.8,0.1-1.5,0.1-2.2,0.1c-1.4,0-2.1-0.7-2.1-2v-6.3l-1.5,0c-0.1-0.2-0.1-0.5-0.1-0.7
			s0-0.5,0.1-0.8l1.5,0V118c0-0.5,0.1-0.8,0.2-1c0.2-0.2,0.4-0.3,0.8-0.3h0.8l0.1,0.1v2.9L459.1,119.7z"/>
	</g>
</g>
</svg>
