<svg id="Layer_1" data-name="Layer 1" xmlns="http://www.w3.org/2000/svg" viewBox="0 0 461.25 90.4"><defs><style>.cls-1{fill:#495bc1;}.cls-2{fill:#afafaf;}</style></defs><title>aliaspay_logo</title><path class="cls-1" d="M211.32,77.05a14.93,14.93,0,0,1-1.74,4.11,10.32,10.32,0,0,1-2.65,3.2,12,12,0,0,1-9.87-4.84q-6,5.48-12.9,5.48A15.61,15.61,0,0,1,178,83.86a13.4,13.4,0,0,1-4.48-3.06,12.61,12.61,0,0,1-2.75-4.44,15.23,15.23,0,0,1-.91-5.26,15.78,15.78,0,0,1,1.42-6.9,13.82,13.82,0,0,1,3.88-4.94,17.29,17.29,0,0,1,5.76-3,24,24,0,0,1,7-1c1.41,0,2.64,0,3.71,0s2,.08,2.79.14V53.71c0-3.89-2-5.83-5.95-5.83q-3.84,0-13.44,3-2.75-3.21-3.47-10,2.19-.82,4.89-1.55T182,38.1q2.84-.56,5.58-.87a41.5,41.5,0,0,1,4.93-.32,20.87,20.87,0,0,1,6.18.91,14.87,14.87,0,0,1,5.21,2.79,13.36,13.36,0,0,1,3.57,4.85,17.34,17.34,0,0,1,1.32,7.08V71.1Q208.76,75.32,211.32,77.05Zm-27.61-6.86c0,2.87,1.64,4.3,4.94,4.3,1.7,0,3.62-.89,5.76-2.65V64.52l-3.07-.14c-.82,0-1.45,0-1.87,0Q183.71,64.34,183.71,70.19Z" transform="translate(-15.99 -13.25)"/><path class="cls-1" d="M232.29,73.12h2.47a20.76,20.76,0,0,1,.82,10,60.26,60.26,0,0,1-9.78.92q-6.23,0-8.83-3.06t-2.6-9.65V17l.54-.64h5.58q4.31,0,6,1.92t1.73,6.66V68.83Q228.26,73.12,232.29,73.12Z" transform="translate(-15.99 -13.25)"/><path class="cls-1" d="M255.53,48.52V83.63c-1,.18-2.16.32-3.38.41s-2.47.14-3.75.14-2.54-.05-3.79-.14-2.39-.23-3.43-.41V53.37q0-5.31-4.3-5.31h-1.37a16.92,16.92,0,0,1-.55-4.84,20.77,20.77,0,0,1,.55-5.12c1.59-.13,3.05-.23,4.39-.32s2.56-.14,3.66-.14h2a9.36,9.36,0,0,1,7.31,2.92A11.42,11.42,0,0,1,255.53,48.52Zm-16-28.9a14.21,14.21,0,0,1,6.86-1.46,12.83,12.83,0,0,1,6.68,1.46,13.45,13.45,0,0,1,0,10.61,15.1,15.1,0,0,1-6.95,1.37,12.89,12.89,0,0,1-6.59-1.37,13.45,13.45,0,0,1,0-10.61Z" transform="translate(-15.99 -13.25)"/><path class="cls-1" d="M302.09,77.05a15.19,15.19,0,0,1-1.73,4.11,10.47,10.47,0,0,1-2.66,3.2,12.05,12.05,0,0,1-9.87-4.84Q281.89,85,274.94,85a15.66,15.66,0,0,1-6.22-1.14,13.4,13.4,0,0,1-4.48-3.06,12.61,12.61,0,0,1-2.75-4.44,15.47,15.47,0,0,1-.91-5.26A15.78,15.78,0,0,1,262,64.2a13.82,13.82,0,0,1,3.88-4.94,17.29,17.29,0,0,1,5.76-3,24.08,24.08,0,0,1,7.05-1c1.4,0,2.63,0,3.7,0s2,.08,2.79.14V53.71c0-3.89-2-5.83-5.95-5.83q-3.84,0-13.44,3-2.75-3.21-3.47-10,2.19-.82,4.89-1.55t5.53-1.28q2.83-.56,5.58-.87a41.52,41.52,0,0,1,4.94-.32,20.85,20.85,0,0,1,6.17.91,14.78,14.78,0,0,1,5.21,2.79,13.36,13.36,0,0,1,3.57,4.85,17.34,17.34,0,0,1,1.32,7.08V71.1C299.53,73.91,300.39,75.89,302.09,77.05Zm-27.61-6.86c0,2.87,1.64,4.3,4.94,4.3,1.7,0,3.62-.89,5.76-2.65V64.52l-3.07-.14c-.82,0-1.44,0-1.87,0Q274.48,64.34,274.48,70.19Z" transform="translate(-15.99 -13.25)"/><path class="cls-1" d="M304.57,80.52a15.5,15.5,0,0,1,1.24-5.21,14.3,14.3,0,0,1,2.69-4.48q7.32,3.84,12.71,3.84a7.4,7.4,0,0,0,3.94-.87,2.65,2.65,0,0,0,1.37-2.33c0-1.83-1.41-3.2-4.21-4.11l-5-1.93q-11.43-4.2-11.43-13.71a13.7,13.7,0,0,1,4.8-11q4.8-4.06,12.94-4.07a38.5,38.5,0,0,1,8.87,1.15,37.23,37.23,0,0,1,8,2.69,13,13,0,0,1-1,5.63,9.47,9.47,0,0,1-2.93,4.34Q328.8,47,323.68,47a4.17,4.17,0,0,0-2.79.83,2.65,2.65,0,0,0-1,2.1q0,2.19,3.48,3.48l5.67,2q12.15,4.29,12.16,14.72a13.21,13.21,0,0,1-5,10.88q-5,4-14.36,4A34.6,34.6,0,0,1,304.57,80.52Z" transform="translate(-15.99 -13.25)"/><path class="cls-2" d="M371.11,84.54a19.86,19.86,0,0,1-8.39-1.92V94.79c0,3.16-.58,5.39-1.73,6.67s-3.2,1.92-6.13,1.92h-5.49l-.64-.64V38l.64-.64h3.75a8.4,8.4,0,0,1,7.78,4.48,17.21,17.21,0,0,1,12.67-5.21,13.28,13.28,0,0,1,6.74,1.69,15,15,0,0,1,5,4.8,23.7,23.7,0,0,1,3.1,7.5,43.18,43.18,0,0,1,1,9.88,33,33,0,0,1-1.41,10,23.38,23.38,0,0,1-3.87,7.59,17.2,17.2,0,0,1-5.79,4.8A15.69,15.69,0,0,1,371.11,84.54ZM369.4,48.06q-3.84,0-6.68,3.66V71.84a12.1,12.1,0,0,0,5.95,2.1q6.21,0,6.22-13.81Q374.89,48.05,369.4,48.06Z" transform="translate(-15.99 -13.25)"/><path class="cls-2" d="M433.7,77.05A15.57,15.57,0,0,1,432,81.16a10.6,10.6,0,0,1-2.65,3.2,12.07,12.07,0,0,1-9.88-4.84Q413.49,85,406.54,85a15.66,15.66,0,0,1-6.22-1.14,13.4,13.4,0,0,1-4.48-3.06,12.58,12.58,0,0,1-2.74-4.44,15.24,15.24,0,0,1-.92-5.26,15.92,15.92,0,0,1,1.42-6.9,13.84,13.84,0,0,1,3.89-4.94,17.1,17.1,0,0,1,5.76-3,24,24,0,0,1,7-1c1.4,0,2.63,0,3.7,0s2,.08,2.79.14V53.71q0-5.84-5.94-5.83-3.84,0-13.44,3-2.75-3.21-3.48-10,2.19-.82,4.89-1.55c1.8-.49,3.64-.92,5.54-1.28s3.74-.66,5.57-.87a41.65,41.65,0,0,1,4.94-.32,20.85,20.85,0,0,1,6.17.91,14.78,14.78,0,0,1,5.21,2.79,13.14,13.14,0,0,1,3.57,4.85,17.34,17.34,0,0,1,1.33,7.08V71.1Q431.14,75.32,433.7,77.05Zm-27.62-6.86q0,4.31,4.94,4.3c1.71,0,3.63-.89,5.76-2.65V64.52l-3.06-.14c-.83,0-1.45,0-1.88,0Q406.08,64.34,406.08,70.19Z" transform="translate(-15.99 -13.25)"/><path class="cls-2" d="M477.24,39.47,466,82.44q-2.65,9.89-7,15.18-5,6-15.45,6a35.09,35.09,0,0,1-11.07-1.83,15.11,15.11,0,0,1,.55-5.54,11.4,11.4,0,0,1,2.29-4.7A26,26,0,0,0,443.5,93q6.76,0,9-7.41l.36-1.28q-7.95,0-9.51-5.76L432.71,39.1a19,19,0,0,1,7.86-1.92q3.66,0,5.35,1.37a8.5,8.5,0,0,1,2.51,4.76l4.21,17.55q.64,2.47,2.1,12.07a.67.67,0,0,0,.73.64l8-35.47a21.78,21.78,0,0,1,5.94-.65,23.89,23.89,0,0,1,7.32,1Z" transform="translate(-15.99 -13.25)"/><path class="cls-1" d="M75.6,61.61,75,73.73h7.21l-.58-12.12a5.57,5.57,0,0,0,2.59-4.71,5.62,5.62,0,1,0-8.65,4.71Z" transform="translate(-15.99 -13.25)"/><path class="cls-1" d="M112.38,13.25H44.17A17.66,17.66,0,0,0,26.75,28.16,16.83,16.83,0,0,0,16,43.84V82.9A16.86,16.86,0,0,0,32.83,99.74H101a16.85,16.85,0,0,0,16.35-12.88A17.66,17.66,0,0,0,130,70V30.89A17.66,17.66,0,0,0,112.38,13.25ZM122,70a9.65,9.65,0,0,1-9.63,9.62H44.17A9.65,9.65,0,0,1,34.55,70V45.67H122Zm0-38.5H34.55v-.56a9.65,9.65,0,0,1,9.62-9.62h68.21A9.65,9.65,0,0,1,122,30.89Z" transform="translate(-15.99 -13.25)"/></svg>