<svg id="Layer_1" data-name="Layer 1" xmlns="http://www.w3.org/2000/svg" viewBox="0 0 621 222.5"><defs><style>.cls-1{fill:#fff;}</style></defs><title>Artboard 1</title><path class="cls-1" d="M267.6,125.4a13.63,13.63,0,0,1-1.9,4.4,11.25,11.25,0,0,1-2.8,3.4,12.94,12.94,0,0,1-10.6-5.2c-4.3,3.9-8.9,5.9-13.8,5.9a17.41,17.41,0,0,1-6.7-1.2,13.71,13.71,0,0,1-4.8-3.3,13.16,13.16,0,0,1-2.9-4.8,15.4,15.4,0,0,1-1-5.6,17.15,17.15,0,0,1,1.5-7.4,14.56,14.56,0,0,1,4.2-5.3,18.24,18.24,0,0,1,6.2-3.2,26.84,26.84,0,0,1,7.6-1.1h4c1.1,0,2.1.1,3,.1v-1.9c0-4.2-2.1-6.3-6.4-6.3-2.7,0-7.6,1.1-14.4,3.2-2-2.3-3.2-5.9-3.7-10.7,1.6-.6,3.3-1.1,5.2-1.7s3.9-1,5.9-1.4,4-.7,6-.9a52.9,52.9,0,0,1,5.3-.3,20.7,20.7,0,0,1,6.6,1,17.72,17.72,0,0,1,5.6,3,13.52,13.52,0,0,1,3.8,5.2,19.45,19.45,0,0,1,1.4,7.6V119C264.9,122,265.8,124.2,267.6,125.4ZM238,118c0,3.1,1.8,4.6,5.3,4.6,1.8,0,3.9-.9,6.2-2.8V112c-1.3-.1-2.4-.1-3.3-.1h-2C240,111.8,238,113.9,238,118Z"/><path class="cls-1" d="M290.1,121.2h2.6a21.71,21.71,0,0,1,.9,10.8,59.61,59.61,0,0,1-10.5,1c-4.4,0-7.6-1.1-9.5-3.3s-2.8-5.6-2.8-10.3V61l.6-.7h6c3.1,0,5.2.7,6.5,2.1s1.9,3.8,1.9,7.1v47.1C285.8,119.6,287.2,121.2,290.1,121.2Z"/><path class="cls-1" d="M315,94.8v37.7a36,36,0,0,1-3.6.4c-1.3.1-2.6.1-4,.1s-2.7,0-4.1-.1-2.6-.2-3.7-.4V100c0-3.8-1.5-5.7-4.6-5.7h-1.5a17.61,17.61,0,0,1-.6-5.2,21.47,21.47,0,0,1,.6-5.5c1.7-.1,3.3-.2,4.7-.3s2.7-.1,3.9-.1h2.2a10,10,0,0,1,7.8,3.1C314.1,88.4,315,91.2,315,94.8Zm-17.1-31a15.62,15.62,0,0,1,7.4-1.6c3.1,0,5.5.5,7.2,1.6a14.14,14.14,0,0,1,0,11.4,16.12,16.12,0,0,1-7.5,1.5,13.89,13.89,0,0,1-7.1-1.5,14.14,14.14,0,0,1,0-11.4Z"/><path class="cls-1" d="M365,125.4a13.63,13.63,0,0,1-1.9,4.4,11.25,11.25,0,0,1-2.8,3.4,12.94,12.94,0,0,1-10.6-5.2c-4.3,3.9-8.9,5.9-13.8,5.9a17.41,17.41,0,0,1-6.7-1.2,13.71,13.71,0,0,1-4.8-3.3,13.16,13.16,0,0,1-2.9-4.8,15.4,15.4,0,0,1-1-5.6,17.15,17.15,0,0,1,1.5-7.4,14.56,14.56,0,0,1,4.2-5.3,18.24,18.24,0,0,1,6.2-3.2A26.84,26.84,0,0,1,340,102h4c1.1,0,2.1.1,3,.1v-1.9c0-4.2-2.1-6.3-6.4-6.3-2.7,0-7.6,1.1-14.4,3.2-2-2.3-3.2-5.9-3.7-10.7,1.6-.6,3.3-1.1,5.2-1.7s3.9-1,5.9-1.4,4-.7,6-.9a52.9,52.9,0,0,1,5.3-.3,20.7,20.7,0,0,1,6.6,1,17.72,17.72,0,0,1,5.6,3,13.52,13.52,0,0,1,3.8,5.2,19.45,19.45,0,0,1,1.4,7.6V119C362.2,122,363.1,124.2,365,125.4ZM335.3,118c0,3.1,1.8,4.6,5.3,4.6,1.8,0,3.9-.9,6.2-2.8V112c-1.3-.1-2.4-.1-3.3-.1h-2C337.4,111.8,335.3,113.9,335.3,118Z"/><path class="cls-1" d="M367.6,129.1a18,18,0,0,1,1.3-5.6,15.68,15.68,0,0,1,2.9-4.8c5.2,2.7,9.8,4.1,13.6,4.1a8.19,8.19,0,0,0,4.2-.9,2.86,2.86,0,0,0,1.5-2.5c0-2-1.5-3.4-4.5-4.4l-5.4-2.1q-12.3-4.5-12.3-14.7c0-5,1.7-8.9,5.1-11.8s8.1-4.4,13.9-4.4a42.55,42.55,0,0,1,9.5,1.2,38,38,0,0,1,8.5,2.9,13.71,13.71,0,0,1-1.1,6,11.63,11.63,0,0,1-3.1,4.7c-5.5-2.5-10.1-3.7-13.7-3.7a4.48,4.48,0,0,0-3,.9,2.76,2.76,0,0,0-1,2.3c0,1.6,1.2,2.8,3.7,3.7l6.1,2.2c8.7,3.1,13,8.3,13,15.8a14.24,14.24,0,0,1-5.4,11.7c-3.6,2.9-8.7,4.3-15.4,4.3A38.35,38.35,0,0,1,367.6,129.1Z"/><path class="cls-1" d="M439,133.4a21.12,21.12,0,0,1-9-2.1v13c0,3.4-.6,5.8-1.9,7.2s-3.4,2.1-6.6,2.1h-5.9l-.6-.6V83.5l.7-.7h4a8.93,8.93,0,0,1,8.3,4.8A18.48,18.48,0,0,1,441.6,82a14.25,14.25,0,0,1,7.2,1.8,15.17,15.17,0,0,1,5.3,5.1,23.21,23.21,0,0,1,3.3,8,48.63,48.63,0,0,1,1.1,10.6,35.93,35.93,0,0,1-1.5,10.7,23.88,23.88,0,0,1-4.2,8.1,18.84,18.84,0,0,1-6.2,5.1A13.94,13.94,0,0,1,439,133.4Zm-1.9-39.1q-4.05,0-7.2,3.9v21.6c2.5,1.5,4.6,2.3,6.4,2.3,4.4,0,6.7-4.9,6.7-14.8C443,98.6,441.1,94.3,437.1,94.3Z"/><path class="cls-1" d="M506.1,125.4a13.63,13.63,0,0,1-1.9,4.4,11.25,11.25,0,0,1-2.8,3.4,12.94,12.94,0,0,1-10.6-5.2c-4.3,3.9-8.9,5.9-13.8,5.9a17.41,17.41,0,0,1-6.7-1.2,13.71,13.71,0,0,1-4.8-3.3,13.16,13.16,0,0,1-2.9-4.8,15.4,15.4,0,0,1-1-5.6,17.15,17.15,0,0,1,1.5-7.4,14.56,14.56,0,0,1,4.2-5.3,18.24,18.24,0,0,1,6.2-3.2,26.84,26.84,0,0,1,7.6-1.1h4c1.1,0,2.1.1,3,.1v-1.9c0-4.2-2.1-6.3-6.4-6.3-2.7,0-7.6,1.1-14.4,3.2-2-2.3-3.2-5.9-3.7-10.7,1.6-.6,3.3-1.1,5.2-1.7s3.9-1,5.9-1.4,4-.7,6-.9a52.9,52.9,0,0,1,5.3-.3,20.7,20.7,0,0,1,6.6,1,17.72,17.72,0,0,1,5.6,3,13.52,13.52,0,0,1,3.8,5.2,19.45,19.45,0,0,1,1.4,7.6V119C503.4,122,504.3,124.2,506.1,125.4ZM476.5,118c0,3.1,1.8,4.6,5.3,4.6,1.8,0,3.9-.9,6.2-2.8V112c-1.3-.1-2.4-.1-3.3-.1h-2C478.5,111.8,476.5,113.9,476.5,118Z"/><path class="cls-1" d="M552.8,85.1l-12.1,46.1c-1.9,7.1-4.4,12.5-7.6,16.3-3.6,4.3-9.1,6.5-16.6,6.5a38.09,38.09,0,0,1-11.9-2,15.6,15.6,0,0,1,.6-5.9,12.17,12.17,0,0,1,2.5-5.1,27.13,27.13,0,0,0,8.8,1.5c4.8,0,8-2.6,9.6-7.9l.4-1.4c-5.7,0-9.1-2.1-10.2-6.2L505,84.7a20,20,0,0,1,8.4-2.1q3.9,0,5.7,1.5a9.45,9.45,0,0,1,2.7,5.1l4.5,18.8c.5,1.8,1.2,6.1,2.3,12.9.1.5.3.7.8.7l8.5-38a22.2,22.2,0,0,1,6.4-.7,25.74,25.74,0,0,1,7.8,1.1Z"/><path class="cls-1" d="M122,108.8l-.6,13h7.7l-.6-13a6,6,0,1,0-6.5,0Z"/><path class="cls-1" d="M161.5,57H88.3A18.94,18.94,0,0,0,69.6,73,18.1,18.1,0,0,0,58.1,89.8v41.9a18.1,18.1,0,0,0,18.1,18.1h73.2A18,18,0,0,0,166.9,136a19,19,0,0,0,13.6-18.1v-42A19.1,19.1,0,0,0,161.5,57Zm10.3,60.8a10.29,10.29,0,0,1-10.3,10.3H88.3A10.29,10.29,0,0,1,78,117.8v-26h93.8Zm0-41.3H78v-.6A10.29,10.29,0,0,1,88.3,65.6h73.2a10.29,10.29,0,0,1,10.3,10.3Z"/></svg>