<?xml version="1.0" encoding="utf-8"?>
<!-- Generator: Adobe Illustrator 22.1.0, SVG Export Plug-In . SVG Version: 6.00 Build 0)  -->
<svg version="1.1" id="Layer_1" xmlns="http://www.w3.org/2000/svg" xmlns:xlink="http://www.w3.org/1999/xlink" x="0px" y="0px"
	 viewBox="0 0 468 222.5" style="enable-background:new 0 0 468 222.5;" xml:space="preserve">
<style type="text/css">
	.st0{display:none;}
	.st1{display:inline;fill-rule:evenodd;clip-rule:evenodd;fill:#BBBDBF;}
	.st2{display:inline;}
	.st3{fill:#BBBDBF;}
</style>
<g id="Stripe" class="st0">
	<path class="st1" d="M414,113.4c0-25.6-12.4-45.8-36.1-45.8c-23.8,0-38.2,20.2-38.2,45.6c0,30.1,17,45.3,41.4,45.3
		c11.9,0,20.9-2.7,27.7-6.5V132c-6.8,3.4-14.6,5.5-24.5,5.5c-9.7,0-18.3-3.4-19.4-15.2h48.9C413.8,121,414,115.8,414,113.4z
		 M364.6,103.9c0-11.3,6.9-16,13.2-16c6.1,0,12.6,4.7,12.6,16H364.6z"/>
	<path class="st1" d="M301.1,67.6c-9.8,0-16.1,4.6-19.6,7.8l-1.3-6.2h-22l0,116.6l25-5.3l0.1-28.3c3.6,2.6,8.9,6.3,17.7,6.3
		c17.9,0,34.2-14.4,34.2-46.1C335.1,83.4,318.6,67.6,301.1,67.6z M295.1,136.5c-5.9,0-9.4-2.1-11.8-4.7l-0.1-37.1
		c2.6-2.9,6.2-4.9,11.9-4.9c9.1,0,15.4,10.2,15.4,23.3C310.5,126.5,304.3,136.5,295.1,136.5z"/>
	<polygon class="st1" points="223.8,61.7 248.9,56.3 248.9,36 223.8,41.3 	"/>
	<rect x="223.8" y="69.3" class="st1" width="25.1" height="87.5"/>
	<path class="st1" d="M196.9,76.7l-1.6-7.4h-21.6v87.5h25V97.5c5.9-7.7,15.9-6.3,19-5.2v-23C214.5,68.1,202.8,65.9,196.9,76.7z"/>
	<path class="st1" d="M146.9,47.6l-24.4,5.2l-0.1,80.1c0,14.8,11.1,25.7,25.9,25.7c8.2,0,14.2-1.5,17.5-3.3V135
		c-3.2,1.3-19,5.9-19-8.9V90.6h19V69.3h-19L146.9,47.6z"/>
	<path class="st1" d="M79.3,94.7c0-3.9,3.2-5.4,8.5-5.4c7.6,0,17.2,2.3,24.8,6.4V72.2c-8.3-3.3-16.5-4.6-24.8-4.6
		C67.5,67.6,54,78.2,54,95.9c0,27.6,38,23.2,38,35.1c0,4.6-4,6.1-9.6,6.1c-8.3,0-18.9-3.4-27.3-8v23.8c9.3,4,18.7,5.7,27.3,5.7
		c20.8,0,35.1-10.3,35.1-28.2C117.4,100.6,79.3,105.9,79.3,94.7z"/>
</g>
<g class="st0">
	<g class="st2">
		<path class="st3" d="M-157.6,86.8c-3.6-0.7-7.1,1.3-10.4,6.2c-2.7,3.8-4.4,7.8-5.3,11.9c-0.5,2.3-0.7,4.8-0.7,7.3
			c0,2.9,0.6,6,1.8,9.1c1.5,3.9,3.5,6,5.9,6.5c2.5,0.5,5.2-0.6,8.1-3.2c3.7-3.3,6.2-8.2,7.6-14.8c0.5-2.3,0.7-4.8,0.7-7.4
			c0-2.9-0.6-6-1.8-9.1C-153.2,89.4-155.2,87.3-157.6,86.8z"/>
		<g>
			<path class="st3" d="M-94.9,86.8c-3.6-0.7-7.1,1.3-10.4,6.2c-2.7,3.8-4.4,7.8-5.3,11.9c-0.5,2.3-0.7,4.8-0.7,7.3
				c0,2.9,0.6,6,1.8,9.1c1.5,3.9,3.5,6,5.9,6.5c2.5,0.5,5.2-0.6,8.1-3.2c3.7-3.3,6.2-8.2,7.6-14.8c0.4-2.3,0.7-4.8,0.7-7.4
				c0-2.9-0.6-6-1.8-9.1C-90.5,89.4-92.5,87.3-94.9,86.8z"/>
			<path class="st3" d="M-80.7,45.7h-199.1c-12.6,0-22.8,10.3-22.7,22.8v76c0,12.6,10.2,22.8,22.8,22.8h94.3l43.1,24l-9.8-24h71.4
				c12.6,0,22.8-10.2,22.8-22.8v-76C-57.9,55.9-68.1,45.7-80.7,45.7z M-202.4,145.8c0.2,2.5-0.2,4.7-1.2,6.6c-1.2,2.2-3,3.4-5.3,3.6
				c-2.6,0.2-5.3-1-7.9-3.7c-9.3-9.5-16.7-23.7-22.1-42.6c-6.5,12.8-11.3,22.4-14.4,28.8c-5.9,11.3-10.9,17.1-15.1,17.4
				c-2.7,0.2-5-2.1-7-6.9c-5.1-13.1-10.6-38.4-16.5-75.9c-0.3-2.6,0.2-4.9,1.6-6.7c1.4-1.9,3.5-2.9,6.3-3.1c5.1-0.4,8,2,8.7,7.2
				c3.1,20.9,6.5,38.6,10.1,53.1l21.9-41.7c2-3.8,4.5-5.8,7.5-6c4.4-0.3,7.1,2.5,8.2,8.4c2.5,13.3,5.7,24.6,9.5,34.2
				c2.6-25.4,7-43.7,13.2-55c1.5-2.8,3.7-4.2,6.6-4.4c2.3-0.2,4.4,0.5,6.3,2c1.9,1.5,2.9,3.4,3.1,5.7c0.1,1.8-0.2,3.3-1,4.8
				c-3.9,7.2-7.1,19.3-9.7,36.1C-202.1,124-203,136.7-202.4,145.8z M-141,130.1c-6,10-13.8,15-23.5,15c-1.7,0-3.5-0.2-5.4-0.6
				c-7.1-1.5-12.4-5.3-16-11.6c-3.2-5.5-4.8-12.1-4.8-19.8c0-10.3,2.6-19.7,7.8-28.2c6.1-10,13.9-15,23.5-15c1.7,0,3.5,0.2,5.4,0.6
				c7,1.5,12.4,5.3,16,11.6c3.2,5.4,4.8,11.9,4.8,19.7C-133.2,112.1-135.8,121.5-141,130.1z M-78.3,130.1c-6,10-13.8,15-23.5,15
				c-1.7,0-3.5-0.2-5.4-0.6c-7.1-1.5-12.4-5.3-16-11.6c-3.2-5.5-4.8-12.1-4.8-19.8c0-10.3,2.6-19.7,7.8-28.2c6.1-10,13.9-15,23.5-15
				c1.7,0,3.5,0.2,5.4,0.6c7.1,1.5,12.4,5.3,16,11.6c3.2,5.4,4.8,11.9,4.8,19.7C-70.5,112.1-73.1,121.5-78.3,130.1z"/>
		</g>
	</g>
	<g class="st2">
		<g>
			<path class="st3" d="M-32.6,81.2c-6.7,6.6-10,15-10,25.2c0,10.9,3.3,19.8,9.9,26.5c6.6,6.7,15.2,10.1,25.9,10.1
				c3.1,0,6.6-0.5,10.4-1.6v-16.2c-3.5,1-6.5,1.5-9.1,1.5c-5.3,0-9.5-1.8-12.7-5.3c-3.2-3.6-4.8-8.4-4.8-14.5c0-5.7,1.6-10.4,4.7-14
				c3.2-3.7,7.1-5.5,11.9-5.5c3.1,0,6.4,0.5,10,1.5V72.7c-3.3-0.9-7-1.3-10.9-1.3C-17.5,71.3-25.9,74.6-32.6,81.2z M36.8,71.3
				c-9.2,0-16.4,3.1-21.6,9.2s-7.7,14.7-7.7,25.7c0,11.9,2.6,21,7.7,27.3c5.1,6.3,12.6,9.5,22.4,9.5c9.5,0,16.8-3.2,21.9-9.5
				c5.1-6.3,7.7-15.2,7.7-26.6s-2.6-20.2-7.8-26.4C54.1,74.4,46.6,71.3,36.8,71.3z M44.7,123.3c-1.8,2.8-4.5,4.2-7.9,4.2
				c-3.2,0-5.6-1.4-7.3-4.2c-1.7-2.8-2.5-8.4-2.5-16.9c0-13.1,3.3-19.6,10-19.6c7,0,10.6,6.6,10.6,19.9
				C47.5,114.9,46.5,120.5,44.7,123.3z M116.6,73.2L113,88.5c-0.9,3.9-1.8,7.9-2.6,12l-2,10.6c-1.9-10.6-4.5-23.2-7.8-37.9H77.4
				l-8.7,68.1h17.4l4.7-46.9l11.9,46.9h12.4l11.4-46.8l4.9,46.8h18.2l-9.2-68.1L116.6,73.2L116.6,73.2z M199.9,73.2l-3.6,15.3
				c-0.9,3.9-1.8,7.9-2.6,12l-2,10.6c-1.9-10.6-4.5-23.2-7.8-37.9h-23.2l-8.7,68.1h17.4l4.7-46.9l11.9,46.9h12.4l11.3-46.8l4.9,46.8
				h18.2l-9.2-68.1H199.9z M256.5,114.4h16.3v-14.1h-16.3V87.8h18.8V73.3h-37.2v68.1h37.3v-14.5h-18.9V114.4z M327.2,103.6
				c1.9-3.1,2.9-6.3,2.9-9.6c0-6.4-2.5-11.5-7.5-15.2s-11.9-5.6-20.5-5.6h-21.4v68.1h18.4v-31h0.3l14.9,31h19.4L319,110.6
				C322.5,109,325.3,106.7,327.2,103.6z M299,102.5V86.3c4.4,0.1,7.5,0.8,9.4,2.2c1.9,1.4,2.8,3.6,2.8,6.8
				C311.2,100,307.1,102.4,299,102.5z M340.9,81.2c-6.7,6.6-10,15-10,25.2c0,10.9,3.3,19.8,9.9,26.5c6.6,6.7,15.2,10.1,25.9,10.1
				c3.1,0,6.6-0.5,10.4-1.6v-16.2c-3.5,1-6.5,1.5-9.1,1.5c-5.3,0-9.5-1.8-12.7-5.3c-3.2-3.6-4.8-8.4-4.8-14.5c0-5.7,1.6-10.4,4.7-14
				c3.2-3.7,7.1-5.5,11.9-5.5c3.1,0,6.4,0.5,10,1.5V72.7c-3.3-0.9-7-1.3-10.9-1.3C356.1,71.3,347.6,74.6,340.9,81.2z M400.6,126.7
				v-12.4h16.3v-14.1h-16.3V87.7h18.9V73.2h-37.2v68.1h37.3v-14.5h-19V126.7z"/>
		</g>
	</g>
</g>
<g class="st0">
	<g class="st2">
		<path class="st3" d="M13.8,125.4c-0.3,1.4-0.9,2.8-1.9,4.4c-0.9,1.6-1.9,2.7-2.8,3.4c-4.6-0.1-8.1-1.9-10.6-5.2
			c-4.3,3.9-8.9,5.9-13.8,5.9c-2.5,0-4.8-0.4-6.7-1.2c-1.9-0.8-3.5-1.9-4.8-3.3c-1.3-1.4-2.3-3-2.9-4.8c-0.7-1.8-1-3.7-1-5.6
			c0-2.8,0.5-5.3,1.5-7.4c1-2.1,2.4-3.9,4.2-5.3c1.8-1.4,3.8-2.5,6.2-3.2c2.4-0.7,4.9-1.1,7.6-1.1c1.5,0,2.8,0,4,0
			c1.1,0,2.1,0.1,3,0.1v-1.9c0-4.2-2.1-6.3-6.4-6.3c-2.7,0-7.6,1.1-14.4,3.2c-2-2.3-3.2-5.9-3.7-10.7c1.6-0.6,3.3-1.1,5.2-1.7
			c1.9-0.5,3.9-1,5.9-1.4c2-0.4,4-0.7,6-0.9c2-0.2,3.7-0.3,5.3-0.3c2.3,0,4.5,0.3,6.6,1c2.1,0.7,4,1.7,5.6,3
			c1.6,1.3,2.9,3.1,3.8,5.2c0.9,2.1,1.4,4.7,1.4,7.6V119C11,122,11.9,124.2,13.8,125.4z M-15.9,118c0,3.1,1.8,4.6,5.3,4.6
			c1.8,0,3.9-0.9,6.2-2.8V112c-1.3-0.1-2.4-0.1-3.3-0.1c-0.9,0-1.6,0-2,0C-13.8,111.8-15.9,113.9-15.9,118z"/>
		<path class="st3" d="M36.2,121.2h2.6c0.8,2.2,1.2,4.4,1.2,6.5c0,2.2-0.1,3.6-0.3,4.3c-3.9,0.7-7.4,1-10.5,1
			c-4.4,0-7.6-1.1-9.5-3.3C18,127.5,17,124,17,119.3V61l0.6-0.7h6c3.1,0,5.2,0.7,6.5,2.1c1.2,1.4,1.9,3.8,1.9,7.1v47.1
			C31.9,119.6,33.4,121.2,36.2,121.2z"/>
		<path class="st3" d="M61.2,94.8v37.7c-1.1,0.2-2.3,0.3-3.6,0.4c-1.3,0.1-2.6,0.1-4,0.1c-1.4,0-2.7,0-4.1-0.1
			c-1.3-0.1-2.6-0.2-3.7-0.4V100c0-3.8-1.5-5.7-4.6-5.7h-1.5c-0.4-1.2-0.6-3-0.6-5.2c0-2.2,0.2-4,0.6-5.5c1.7-0.1,3.3-0.2,4.7-0.3
			c1.4-0.1,2.7-0.1,3.9-0.1h2.2c3.3,0,5.9,1,7.8,3.1C60.2,88.4,61.2,91.2,61.2,94.8z M44,63.8c1.9-1,4.3-1.6,7.4-1.6
			c3.1,0,5.5,0.5,7.2,1.6c0.8,1.8,1.2,3.7,1.2,5.7c0,2-0.4,3.9-1.2,5.7c-1.9,1-4.4,1.5-7.5,1.5s-5.4-0.5-7.1-1.5
			c-0.8-1.8-1.2-3.7-1.2-5.7C42.8,67.5,43.2,65.6,44,63.8z"/>
		<path class="st3" d="M111.1,125.4c-0.3,1.4-0.9,2.8-1.9,4.4c-0.9,1.6-1.9,2.7-2.8,3.4c-4.6-0.1-8.1-1.9-10.6-5.2
			c-4.3,3.9-8.9,5.9-13.8,5.9c-2.5,0-4.8-0.4-6.7-1.2c-1.9-0.8-3.5-1.9-4.8-3.3c-1.3-1.4-2.3-3-2.9-4.8c-0.7-1.8-1-3.7-1-5.6
			c0-2.8,0.5-5.3,1.5-7.4c1-2.1,2.4-3.9,4.2-5.3c1.8-1.4,3.8-2.5,6.2-3.2c2.4-0.7,4.9-1.1,7.6-1.1c1.5,0,2.8,0,4,0
			c1.1,0,2.1,0.1,3,0.1v-1.9c0-4.2-2.1-6.3-6.4-6.3c-2.7,0-7.6,1.1-14.4,3.2c-2-2.3-3.2-5.9-3.7-10.7c1.6-0.6,3.3-1.1,5.2-1.7
			c1.9-0.5,3.9-1,5.9-1.4c2-0.4,4-0.7,6-0.9c2-0.2,3.7-0.3,5.3-0.3c2.3,0,4.5,0.3,6.6,1c2.1,0.7,4,1.7,5.6,3
			c1.6,1.3,2.9,3.1,3.8,5.2c0.9,2.1,1.4,4.7,1.4,7.6V119C108.4,122,109.3,124.2,111.1,125.4z M81.5,118c0,3.1,1.8,4.6,5.3,4.6
			c1.8,0,3.9-0.9,6.2-2.8V112c-1.3-0.1-2.4-0.1-3.3-0.1c-0.9,0-1.6,0-2,0C83.6,111.8,81.5,113.9,81.5,118z"/>
		<path class="st3" d="M113.8,129.1c0.1-1.7,0.5-3.6,1.3-5.6c0.8-2,1.8-3.6,2.9-4.8c5.2,2.7,9.8,4.1,13.6,4.1c1.8,0,3.2-0.3,4.2-0.9
			c1-0.6,1.5-1.5,1.5-2.5c0-2-1.5-3.4-4.5-4.4l-5.4-2.1c-8.2-3-12.3-7.9-12.3-14.7c0-5,1.7-8.9,5.1-11.8c3.4-2.9,8.1-4.4,13.9-4.4
			c2.9,0,6,0.4,9.5,1.2c3.5,0.8,6.3,1.8,8.5,2.9c0.1,1.8-0.2,3.8-1.1,6c-0.9,2.2-1.9,3.7-3.1,4.7c-5.5-2.5-10.1-3.7-13.7-3.7
			c-1.3,0-2.3,0.3-3,0.9c-0.7,0.6-1,1.3-1,2.3c0,1.6,1.2,2.8,3.7,3.7l6.1,2.2c8.7,3.1,13,8.3,13,15.8c0,4.9-1.8,8.8-5.4,11.7
			c-3.6,2.9-8.7,4.3-15.4,4.3C125.6,133.9,119.5,132.3,113.8,129.1z"/>
	</g>
	<g class="st2">
		<path class="st3" d="M185.1,133.4c-3,0-6-0.7-9-2.1v13c0,3.4-0.6,5.8-1.9,7.2c-1.2,1.4-3.4,2.1-6.6,2.1h-5.9l-0.7-0.7V83.5
			l0.7-0.7h4c3.7,0,6.5,1.6,8.3,4.8c3.7-3.7,8.2-5.6,13.6-5.6c2.7,0,5.1,0.6,7.2,1.8c2.1,1.2,3.9,2.9,5.3,5.1c1.5,2.2,2.6,4.9,3.3,8
			c0.7,3.1,1.1,6.7,1.1,10.6c0,3.9-0.5,7.5-1.5,10.7c-1,3.2-2.4,5.9-4.2,8.1c-1.8,2.2-3.8,3.9-6.2,5.1
			C190.5,132.8,187.9,133.4,185.1,133.4z M183.3,94.3c-2.7,0-5.1,1.3-7.2,3.9v21.6c2.5,1.5,4.6,2.3,6.4,2.3c4.4,0,6.7-4.9,6.7-14.8
			C189.2,98.6,187.2,94.3,183.3,94.3z"/>
		<path class="st3" d="M252.3,125.4c-0.3,1.4-0.9,2.8-1.9,4.4c-0.9,1.6-1.9,2.7-2.8,3.4c-4.6-0.1-8.1-1.9-10.6-5.2
			c-4.3,3.9-8.9,5.9-13.8,5.9c-2.5,0-4.8-0.4-6.7-1.2c-1.9-0.8-3.5-1.9-4.8-3.3c-1.3-1.4-2.3-3-2.9-4.8c-0.7-1.8-1-3.7-1-5.6
			c0-2.8,0.5-5.3,1.5-7.4c1-2.1,2.4-3.9,4.2-5.3c1.8-1.4,3.8-2.5,6.2-3.2c2.4-0.7,4.9-1.1,7.6-1.1c1.5,0,2.8,0,4,0
			c1.1,0,2.1,0.1,3,0.1v-1.9c0-4.2-2.1-6.3-6.4-6.3c-2.7,0-7.6,1.1-14.4,3.2c-2-2.3-3.2-5.9-3.7-10.7c1.6-0.6,3.3-1.1,5.2-1.7
			c1.9-0.5,3.9-1,5.9-1.4c2-0.4,4-0.7,6-0.9c2-0.2,3.7-0.3,5.3-0.3c2.3,0,4.5,0.3,6.6,1c2.1,0.7,4,1.7,5.6,3
			c1.6,1.3,2.9,3.1,3.8,5.2c0.9,2.1,1.4,4.7,1.4,7.6V119C249.5,122,250.4,124.2,252.3,125.4z M222.6,118c0,3.1,1.8,4.6,5.3,4.6
			c1.8,0,3.9-0.9,6.2-2.8V112c-1.3-0.1-2.4-0.1-3.3-0.1c-0.9,0-1.6,0-2,0C224.7,111.8,222.6,113.9,222.6,118z"/>
		<path class="st3" d="M299,85.1l-12.1,46.1c-1.9,7.1-4.4,12.5-7.6,16.3c-3.6,4.3-9.1,6.5-16.6,6.5c-4,0-7.9-0.7-11.9-2
			c-0.2-1.8,0-3.7,0.6-5.9c0.6-2.2,1.4-3.9,2.5-5.1c2.9,1,5.9,1.5,8.8,1.5c4.8,0,8-2.6,9.6-7.9l0.4-1.4c-5.7,0-9.1-2.1-10.2-6.2
			l-11.4-42.3c3-1.4,5.8-2.1,8.4-2.1c2.6,0,4.5,0.5,5.7,1.5c1.2,1,2.1,2.7,2.7,5.1l4.5,18.8c0.5,1.8,1.2,6.1,2.3,12.9
			c0.1,0.5,0.3,0.7,0.8,0.7l8.5-38c1.6-0.5,3.7-0.7,6.4-0.7c3,0,5.6,0.4,7.8,1.1L299,85.1z"/>
	</g>
	<g class="st2">
		<path class="st3" d="M-131.8,108.8l-0.6,13h7.7l-0.6-13c1.7-1.1,2.8-2.9,2.8-5.1c0-3.3-2.7-6-6-6c-3.3,0-6,2.7-6,6
			C-134.6,105.9-133.5,107.8-131.8,108.8z"/>
		<path class="st3" d="M-92.3,57h-73.2c-9.4,0-17.3,6.9-18.7,16c-6.7,2.6-11.5,9.2-11.5,16.8v41.9c0,10,8.1,18.1,18.1,18.1h73.2
			c8.5,0,15.6-5.9,17.5-13.8c7.8-2.3,13.6-9.6,13.6-18.1V75.9C-73.4,65.5-81.9,57-92.3,57z M-82,117.8c0,5.7-4.6,10.3-10.3,10.3
			h-73.2c-5.7,0-10.3-4.6-10.3-10.3v-26H-82V117.8z M-82,76.5h-93.8v-0.6c0-5.7,4.6-10.3,10.3-10.3h73.2c5.7,0,10.3,4.6,10.3,10.3
			V76.5z"/>
	</g>
</g>
<path class="st3" d="M239.2,178.3h-18c-6.6,0-12-5.4-12-12v-113c0-6.6,5.4-12,12-12h18c6.6,0,12,5.4,12,12v113
	C251.2,172.9,245.8,178.3,239.2,178.3z"/>
<path class="st3" d="M161.7,118.8v-18c0-6.6,5.4-12,12-12h113c6.6,0,12,5.4,12,12v18c0,6.6-5.4,12-12,12h-113
	C167.1,130.8,161.7,125.4,161.7,118.8z"/>
</svg>
