<svg id="Layer_1" data-name="Layer 1" xmlns="http://www.w3.org/2000/svg" viewBox="0 0 819.3 222.5"><defs><style>.cls-1{fill:#fff;}</style></defs><title>Artboard 1</title><path class="cls-1" d="M193.6,86.8c-3.6-.7-7.1,1.3-10.4,6.2a32.33,32.33,0,0,0-5.3,11.9,34.78,34.78,0,0,0-.7,7.3,25.38,25.38,0,0,0,1.8,9.1c1.5,3.9,3.5,6,5.9,6.5s5.2-.6,8.1-3.2c3.7-3.3,6.2-8.2,7.6-14.8a35.09,35.09,0,0,0,.7-7.4,25.38,25.38,0,0,0-1.8-9.1C198,89.4,196,87.3,193.6,86.8Z"/><path class="cls-1" d="M256.3,86.8c-3.6-.7-7.1,1.3-10.4,6.2a32.33,32.33,0,0,0-5.3,11.9,34.78,34.78,0,0,0-.7,7.3,25.38,25.38,0,0,0,1.8,9.1c1.5,3.9,3.5,6,5.9,6.5s5.2-.6,8.1-3.2c3.7-3.3,6.2-8.2,7.6-14.8a43.23,43.23,0,0,0,.7-7.4,25.38,25.38,0,0,0-1.8-9.1C260.7,89.4,258.7,87.3,256.3,86.8Z"/><path class="cls-1" d="M270.5,45.7H71.4A22.7,22.7,0,0,0,48.7,68.5v76a22.79,22.79,0,0,0,22.8,22.8h94.3l43.1,24-9.8-24h71.4a22.79,22.79,0,0,0,22.8-22.8v-76A22.79,22.79,0,0,0,270.5,45.7ZM148.8,145.8a11.87,11.87,0,0,1-1.2,6.6,6.44,6.44,0,0,1-5.3,3.6c-2.6.2-5.3-1-7.9-3.7q-14-14.25-22.1-42.6-9.75,19.2-14.4,28.8C92,149.8,87,155.6,82.8,155.9c-2.7.2-5-2.1-7-6.9q-7.65-19.65-16.5-75.9a8.93,8.93,0,0,1,1.6-6.7,8,8,0,0,1,6.3-3.1q7.65-.6,8.7,7.2,4.65,31.35,10.1,53.1l21.9-41.7q3-5.7,7.5-6c4.4-.3,7.1,2.5,8.2,8.4a186.8,186.8,0,0,0,9.5,34.2q3.9-38.1,13.2-55a7.68,7.68,0,0,1,6.6-4.4,8.69,8.69,0,0,1,6.3,2,7.83,7.83,0,0,1,3.1,5.7,8.68,8.68,0,0,1-1,4.8c-3.9,7.2-7.1,19.3-9.7,36.1C149.1,124,148.2,136.7,148.8,145.8Zm61.4-15.7c-6,10-13.8,15-23.5,15a26.25,26.25,0,0,1-5.4-.6,23,23,0,0,1-16-11.6q-4.8-8.25-4.8-19.8a53,53,0,0,1,7.8-28.2c6.1-10,13.9-15,23.5-15a26.25,26.25,0,0,1,5.4.6,23.24,23.24,0,0,1,16,11.6c3.2,5.4,4.8,11.9,4.8,19.7A53.59,53.59,0,0,1,210.2,130.1Zm62.7,0c-6,10-13.8,15-23.5,15a26.25,26.25,0,0,1-5.4-.6,23,23,0,0,1-16-11.6q-4.8-8.25-4.8-19.8A53,53,0,0,1,231,84.9c6.1-10,13.9-15,23.5-15a26.25,26.25,0,0,1,5.4.6,23,23,0,0,1,16,11.6c3.2,5.4,4.8,11.9,4.8,19.7A53.59,53.59,0,0,1,272.9,130.1Z"/><path class="cls-1" d="M318.6,81.2c-6.7,6.6-10,15-10,25.2,0,10.9,3.3,19.8,9.9,26.5S333.7,143,344.4,143a37.67,37.67,0,0,0,10.4-1.6V125.2a33.66,33.66,0,0,1-9.1,1.5,16.37,16.37,0,0,1-12.7-5.3c-3.2-3.6-4.8-8.4-4.8-14.5,0-5.7,1.6-10.4,4.7-14a15,15,0,0,1,11.9-5.5,37.35,37.35,0,0,1,10,1.5V72.7a41.77,41.77,0,0,0-10.9-1.3C333.7,71.3,325.3,74.6,318.6,81.2ZM388,71.3c-9.2,0-16.4,3.1-21.6,9.2s-7.7,14.7-7.7,25.7c0,11.9,2.6,21,7.7,27.3S379,143,388.8,143c9.5,0,16.8-3.2,21.9-9.5s7.7-15.2,7.7-26.6-2.6-20.2-7.8-26.4S397.8,71.3,388,71.3Zm7.9,52a8.88,8.88,0,0,1-7.9,4.2,8,8,0,0,1-7.3-4.2c-1.7-2.8-2.5-8.4-2.5-16.9,0-13.1,3.3-19.6,10-19.6,7,0,10.6,6.6,10.6,19.9C398.7,114.9,397.7,120.5,395.9,123.3Zm71.9-50.1-3.6,15.3c-.9,3.9-1.8,7.9-2.6,12l-2,10.6c-1.9-10.6-4.5-23.2-7.8-37.9H428.6l-8.7,68.1h17.4L442,94.4l11.9,46.9h12.4l11.4-46.8,4.9,46.8h18.2l-9.2-68.1Zm83.3,0-3.6,15.3c-.9,3.9-1.8,7.9-2.6,12l-2,10.6c-1.9-10.6-4.5-23.2-7.8-37.9H511.9l-8.7,68.1h17.4l4.7-46.9,11.9,46.9h12.4l11.3-46.8,4.9,46.8H584l-9.2-68.1Zm56.6,41.2H624V100.3H607.7V87.8h18.8V73.3H589.3v68.1h37.3V126.9H607.7V114.4Zm70.7-10.8a18.2,18.2,0,0,0,2.9-9.6,17.93,17.93,0,0,0-7.5-15.2c-5-3.7-11.9-5.6-20.5-5.6H631.9v68.1h18.4v-31h.3l14.9,31h19.4l-14.7-30.7A18.18,18.18,0,0,0,678.4,103.6Zm-28.2-1.1V86.3c4.4.1,7.5.8,9.4,2.2s2.8,3.6,2.8,6.8C662.4,100,658.3,102.4,650.2,102.5Zm41.9-21.3c-6.7,6.6-10,15-10,25.2,0,10.9,3.3,19.8,9.9,26.5S707.2,143,717.9,143a37.67,37.67,0,0,0,10.4-1.6V125.2a33.66,33.66,0,0,1-9.1,1.5,16.37,16.37,0,0,1-12.7-5.3c-3.2-3.6-4.8-8.4-4.8-14.5,0-5.7,1.6-10.4,4.7-14a15,15,0,0,1,11.9-5.5,37.35,37.35,0,0,1,10,1.5V72.7a41.77,41.77,0,0,0-10.9-1.3C707.3,71.3,698.8,74.6,692.1,81.2Zm59.7,45.5V114.3h16.3V100.2H751.8V87.7h18.9V73.2H733.5v68.1h37.3V126.8l-19-.1Z"/></svg>