<?xml version="1.0" encoding="utf-8"?>
<!-- Generator: Adobe Illustrator 22.1.0, SVG Export Plug-In . SVG Version: 6.00 Build 0)  -->
<svg version="1.1" xmlns="http://www.w3.org/2000/svg" xmlns:xlink="http://www.w3.org/1999/xlink" x="0px" y="0px"
	 viewBox="0 0 882 399" style="enable-background:new 0 0 882 399;" xml:space="preserve">
<style type="text/css">
	.st0{fill-rule:evenodd;clip-rule:evenodd;fill:#666666;}
	.st1{fill-rule:evenodd;clip-rule:evenodd;fill:#5895CB;}
	.st2{fill-rule:evenodd;clip-rule:evenodd;fill:#5B5A5A;}
	.st3{fill-rule:evenodd;clip-rule:evenodd;fill:#4D4D4D;}
	.st4{fill:#5B5A5A;}
	.st5{fill:#C6C6C6;}
	.st6{fill:#F2482C;}
	.st7{fill:#DD3119;}
	.st8{fill:#F4EFE8;}
	.st9{fill:#FFFFFF;}
	.st10{fill:#405B66;}
	.st11{fill:#344E56;}
	.st12{fill:#D7EFF2;}
	.st13{fill:#638089;}
	.st14{fill:#FFE7B5;}
	.st15{fill:#EACE9B;}
	.st16{fill:#DB3019;}
	.st17{fill-rule:evenodd;clip-rule:evenodd;fill:#C1C1C1;}
	.st18{fill:#666666;}
	.st19{fill:#495BC1;}
	.st20{fill:#364999;}
	.st21{fill:#F3F3F3;}
	.st22{fill:#8B8C8E;}
	.st23{fill:#30343D;}
	.st24{fill:#7EA87A;}
	.st25{fill:#D95B42;}
	.st26{fill:#F28C1D;}
	.st27{fill:#3EBFBB;}
	.st28{fill:#3895D2;}
	.st29{fill:#E7E7E7;}
	.st30{fill:#AFAFAF;}
	.st31{fill:#F2F9F7;}
	.st32{fill-rule:evenodd;clip-rule:evenodd;fill:#808080;}
</style>
<g id="Layer_1">
	<g>
		<g>
			<path class="st0" d="M111.4,43.7h368.6c7.5,0,13.7,6.2,13.7,13.7v232.9c0,7.5-6.2,13.7-13.7,13.7H111.4
				c-7.5,0-13.7-6.2-13.7-13.7V57.4C97.7,49.9,103.9,43.7,111.4,43.7z"/>
			<rect x="118.3" y="70.9" class="st1" width="354.9" height="190.5"/>
			<path class="st2" d="M295.7,62.8c2.8,0,5-2.2,5-5c0-2.8-2.2-5-5-5c-2.8,0-5,2.2-5,5C290.8,60.5,293,62.8,295.7,62.8z"/>
			<rect x="287.3" y="273.3" class="st3" width="16.8" height="16.8"/>
			<polygon class="st0" points="97.7,304 493.8,304 562.5,349.1 28.9,349.1 			"/>
			<path class="st0" d="M28.9,349.1h533.6v6.4c0,5.4-4.5,9.9-9.9,9.9H38.8c-5.4,0-9.9-4.5-9.9-9.9V349.1z"/>
			<rect x="28.9" y="349.1" class="st3" width="533.6" height="7.7"/>
			<g>
				<g>
					<g>
						<g>
							<rect x="221.3" y="135.9" class="st4" width="148.4" height="104.1"/>
							<rect x="227.2" y="145" class="st5" width="136.6" height="88.7"/>
							<g>
								<g>
									<path class="st6" d="M223.5,121.4h13.1c0,0-5.5,24.9-5.6,25.5c-0.2,0.6-2.4,4.3-7.5,4.6c-5.1,0.2-7.5-3.6-6.7-6.4
										C218,141.2,223.5,121.4,223.5,121.4z"/>
									<path class="st7" d="M231.4,145h-14.5c0,0.1,0,0.1,0,0.2c-0.8,2.8,1.6,6.6,6.7,6.4c4.2-0.2,6.5-2.8,7.2-4.1L231.4,145z"/>
								</g>
								<g>
									<path class="st8" d="M236.6,121.4h12.8c0,0-3.7,23.3-4.2,25.5c-0.6,2.2-3.6,5.1-8.6,4.6c-5-0.5-5.7-4.1-5.2-6.4
										C232,142.4,236.6,121.4,236.6,121.4z"/>
									<path class="st9" d="M245.5,145h-14.1c0,0.1,0,0.1,0,0.2c-0.5,2.3,0.2,5.9,5.2,6.4c5,0.5,8-2.4,8.6-4.6
										c0.1-0.3,0.2-0.9,0.4-1.8L245.5,145z"/>
								</g>
								<g>
									<path class="st6" d="M249.4,121.4h13.4l-2.8,25.1c0,0-2.6,5.4-8.4,4.9c-5.8-0.4-6.3-4.8-6-6.4
										C245.8,143.6,249.4,121.4,249.4,121.4z"/>
									<path class="st7" d="M251.6,151.5c5.5,0.4,8.1-4.3,8.4-4.9v-1.5h-14.4C245.3,146.7,245.8,151.1,251.6,151.5z"/>
								</g>
								<g>
									<path class="st8" d="M262.4,121.4h13.3l-1.8,26.1c0,0-2.6,4.6-7.8,4c-5.2-0.5-6.4-4-6.2-5.5
										C260.2,144.4,262.4,121.4,262.4,121.4z"/>
									<path class="st9" d="M260.1,145.1c0,0.4-0.1,0.7-0.1,0.9c-0.2,1.6,1,5,6.2,5.5c5.2,0.5,7.8-4,7.8-4l0.2-2.4H260.1z"/>
								</g>
								<g>
									<path class="st6" d="M275.8,121.4H289l-0.8,25.5c0,0-2.2,4.6-7.7,4.3c-5.5-0.3-6.4-4.3-6.4-4.3L275.8,121.4z"/>
									<path class="st7" d="M288.2,145.1h-14.1l-0.1,1.9c0.2,0.8,1.6,3.9,6.4,4.1c5.5,0.3,7.7-4.3,7.7-4.3l0-0.4V145.1z"/>
								</g>
								<g>
									<path class="st8" d="M289,121.4h12.9l0.7,25.5c0,0-0.3,4.1-7,4.3c-6.7,0.2-7.3-4.7-7.3-4.7L289,121.4z"/>
									<path class="st9" d="M302.5,147.2l-0.1-2.1h-14.1l0,1.3c0,0,0.6,4.9,7.3,4.7C301,151,302.2,148.2,302.5,147.2z"/>
								</g>
								<g>
									<path class="st6" d="M301.9,121.4h13.6l1.4,25.5c0,0-0.8,4.2-6.6,4.3c-5.7,0.1-7.8-3.6-7.8-4.8
										C302.5,145.1,301.9,121.4,301.9,121.4z"/>
									<path class="st7" d="M316.9,147l0-1l0-0.9h-14.3c0,0.7,0,1.1,0,1.2c0,1.3,2.1,4.9,7.8,4.8
										C315.5,151.1,316.7,147.7,316.9,147z"/>
								</g>
								<g>
									<path class="st8" d="M315.5,121.4h12.9l3,25.5c0,0-2,4.5-7.2,4.3c-5.2-0.2-6.3-2.5-7.3-4.3L315.5,121.4z"/>
									<path class="st9" d="M331.3,147.1l-0.1-2h-14.4v0l0.1,1.8c1,1.8,2.2,4.1,7.3,4.3C328.8,151.4,330.9,147.9,331.3,147.1z"/>
								</g>
								<g>
									<path class="st6" d="M328.4,121.4h13.4l4,25.5c0,0-0.9,3.8-5.7,4.3c-6.2,0.7-8.6-4.3-8.6-4.3l-3-25.2"/>
									<path class="st7" d="M345.7,146.9l-0.3-1.8l0,0h-14.2l0.2,1.8c0,0,2.4,4.9,8.6,4.3C344.8,150.7,345.7,146.9,345.7,146.9z"
										/>
								</g>
								<g>
									<path class="st8" d="M341.8,121.4h12.7l5.6,25.5c0,0-0.9,4.2-5.7,4.3c-4.8,0.1-8.5-3.2-8.7-4.3L341.8,121.4z"/>
									<path class="st9" d="M359.7,145.1h-14.3l0,0l0.3,2c0.5,1.3,4.1,4.3,8.6,4.2c4.8-0.1,5.7-4.3,5.7-4.3L359.7,145.1z"/>
								</g>
								<g>
									<path class="st6" d="M354.5,121.4h13.4l6.4,25.5c0,0,0,4.4-5.9,4.4c-6.1,0-8.3-4.4-8.3-4.4L354.5,121.4z"/>
									<path class="st7" d="M373.9,145.1h-14.2v0l0.4,1.8c0,0,2.2,4.4,8.3,4.4c5.9,0,5.9-4.4,5.9-4.4L373.9,145.1z"/>
								</g>
							</g>
							<path class="st10" d="M238.9,156.8v43.5h58.8v-43.5H238.9z M294.7,198.1h-52.8v-39h52.8V198.1z"/>
							<rect x="237" y="195.1" class="st11" width="62.6" height="11.2"/>
							<rect x="241.9" y="159.1" class="st12" width="52.8" height="36.1"/>
							<g>
								<g>
									<g>
										<rect x="317.4" y="154.9" class="st4" width="36.7" height="78.8"/>
										<g>
											<g>
												<rect x="320.3" y="157.1" class="st13" width="30.9" height="52.6"/>
												<g>
													<rect x="322.1" y="159.2" class="st4" width="27.4" height="48.2"/>
													<g>
														<g>
															<rect x="323.8" y="161.6" class="st12" width="24.1" height="43.6"/>
														</g>
													</g>
												</g>
											</g>
											<g>
												<rect x="320.3" y="211.8" class="st13" width="30.9" height="17.8"/>
												<g>
													<rect x="322.1" y="213.9" class="st4" width="27.4" height="13.5"/>
													<g>
														<g>
															<rect x="323.8" y="215.2" class="st12" width="24.1" height="11"/>
														</g>
													</g>
												</g>
											</g>
										</g>
									</g>
									<g>
										<path class="st14" d="M322.7,189.4c0,1.1-0.9,2-2,2c-1.1,0-2-0.9-2-2c0-1.1,0.9-2,2-2
											C321.8,187.3,322.7,188.2,322.7,189.4z"/>
										<path class="st15" d="M320.2,191.3c0.2,0,0.3,0.1,0.5,0.1c1.1,0,2-0.9,2-2c0-1.1-0.9-2-2-2
											C320.7,187.3,322.8,189.6,320.2,191.3z"/>
									</g>
								</g>
							</g>
						</g>
						<g>
							<rect x="223.5" y="93.1" class="st16" width="144.4" height="28.3"/>
							<rect x="235.3" y="95.4" class="st6" width="120.9" height="23.7"/>
							<g>
								<path class="st8" d="M262.6,99.3v16c0,0.3-0.3,0.5-1,0.5h-0.2c-0.7,0-1-0.2-1-0.5v-13.1l0,0.1l-4.8,8.4
									c-0.1,0.2-0.3,0.3-0.5,0.3h-1c-0.2,0-0.4-0.1-0.5-0.3l-4.9-8.5l0-0.1v13.2c0,0.3-0.3,0.5-1,0.5h-0.2c-0.7,0-1-0.2-1-0.5v-16
									c0-0.3,0.3-0.5,1-0.5h0.9c0.6,0,0.9,0.2,1,0.4l4.6,8l0.6,1.5l0.6-1.4l4.6-8.1c0.1-0.3,0.4-0.4,1-0.4h0.8
									C262.3,98.7,262.6,98.9,262.6,99.3z"/>
								<path class="st8" d="M277,98.7c0.7,0,0.9,0.1,0.9,0.4c0,0.1-0.1,0.3-0.2,0.4l-5.1,7.5v8.2c0,0.3-0.3,0.5-1,0.5h-0.2
									c-0.7,0-1-0.2-1-0.5V107l-5.1-7.5c-0.1-0.2-0.2-0.3-0.2-0.4c0-0.3,0.3-0.4,1.1-0.4h0.3c0.5,0,0.8,0.1,1,0.4l4,6l4.1-6
									c0.2-0.3,0.6-0.3,1.1-0.3H277z"/>
								<path class="st8" d="M294.7,100.1c0,0.4-0.5,1.3-0.8,1.3c-0.4,0-1.3-0.9-3.2-0.9c-1.8,0-3.1,1-3.1,2.7
									c0,1.8,1.6,2.2,3.3,2.9c2.2,0.8,4.6,1.8,4.6,5.1c0,2.9-2.1,4.7-5.4,4.7c-2.8,0-5-1.1-5-1.8c0-0.4,0.6-1.3,0.8-1.3
									c0.3,0,1.7,1.2,4.2,1.2c1.8,0,3.2-1.1,3.2-2.9c0-1.9-1.8-2.6-3.7-3.3c-2.1-0.8-4.2-1.6-4.2-4.8c0-2.6,2.1-4.5,5.4-4.5
									C292.2,98.6,294.7,99.2,294.7,100.1z"/>
								<path class="st8" d="M311.7,99.3v16c0,0.3-0.3,0.5-1,0.5h-0.2c-0.7,0-1-0.2-1-0.5V108h-8.8v7.3c0,0.3-0.3,0.5-1,0.5h-0.2
									c-0.7,0-1-0.2-1-0.5v-16c0-0.3,0.3-0.5,1-0.5h0.2c0.7,0,1,0.2,1,0.5v6.9h8.8v-6.9c0-0.3,0.3-0.5,1-0.5h0.2
									C311.4,98.7,311.7,98.9,311.7,99.3z"/>
								<path class="st8" d="M330.5,107.2c0,5.7-2.6,8.7-7.5,8.7c-4.9,0-7.5-3-7.5-8.7c0-5.7,2.6-8.6,7.5-8.6
									C327.8,98.6,330.5,101.5,330.5,107.2z M317.7,107.2c0,4.5,1.8,6.8,5.3,6.8c3.4,0,5.3-2.4,5.3-6.8c0-4.5-1.9-6.7-5.3-6.7
									C319.5,100.5,317.7,102.7,317.7,107.2z"/>
								<path class="st8" d="M345,103.5c0,4.4-3.9,5-5.2,5H336v6.7c0,0.3-0.3,0.5-1,0.5h-0.2c-0.7,0-1-0.2-1-0.5V99.5
									c0-0.5,0.2-0.7,0.7-0.7h4.9C341.6,98.8,345,99.4,345,103.5z M336,100.6v6.1h3.8c1,0,2.9-0.5,2.9-3.2c0-2.4-1.8-2.9-3.3-2.9
									H336z"/>
							</g>
						</g>
					</g>
				</g>
			</g>
		</g>
		<path class="st17" d="M472.7,329.8v-0.3l0.4,0.3L472.7,329.8L472.7,329.8z M472.7,320.9c1.9,1.4,3.9,2.9,5.9,4.3
			c2.1,1.5,4.2,3.1,6.4,4.6c11.4,0,22.9,0,34.4,0c-2.5-1.5-5-3.1-7.5-4.6c-2.5-1.5-5-3.1-7.4-4.6c-10.6,0-21.2,0-31.7,0V320.9
			L472.7,320.9z M472.7,317v-9.2l10.8,0c2.6,1.5,5,3.1,7.5,4.6c2.5,1.5,5,3.1,7.5,4.6C489.9,317,481.3,317,472.7,317z M472.7,307.8
			v9.2l-5.4,0c-2.1-1.5-4.3-3.1-6.4-4.6c-1.8-1.3-3.5-2.6-5.4-3.9v-0.7L472.7,307.8L472.7,307.8z M472.7,320.6v0.3l-0.4-0.3H472.7
			L472.7,320.6z M472.7,329.5c-1.8-1.4-3.7-2.9-5.6-4.3c-2-1.5-3.9-3.1-5.9-4.6l-5.7,0v9.3l17.2,0V329.5L472.7,329.5z M455.6,317
			l1,0l-1-0.8V317z M158.2,333.9h272.6l9.6,10H149L158.2,333.9L158.2,333.9z M455.6,307.7v0.7c-0.3-0.2-0.7-0.5-1-0.7L455.6,307.7
			L455.6,307.7z M455.6,316.2c-1.7-1.3-3.3-2.6-5-3.8c-2-1.5-3.9-3.1-6-4.6c-9.7,0-19.3,0-28.9-0.1c1.7,1.6,3.2,3.1,4.8,4.7
			c1.6,1.6,3.3,3.1,4.9,4.6l30.1,0V316.2L455.6,316.2z M455.6,320.6v9.3l-16.7,0c-1.6-1.6-3.2-3.1-4.9-4.6c-1.6-1.5-3.2-3.1-4.8-4.6
			C438,320.6,446.8,320.6,455.6,320.6L455.6,320.6z M132.9,330.2v-9.6c8.8,0,17.6,0,26.5,0c-1.6,1.6-3.2,3.2-4.8,4.8
			c-1.6,1.6-3.2,3.2-4.8,4.8L132.9,330.2L132.9,330.2z M132.9,316.8V316c1.7-1.3,3.3-2.7,5-4c2-1.6,3.9-3.2,6-4.8
			c9.6,0,19.2,0,28.9,0.1c-1.6,1.6-3.2,3.2-4.8,4.8c-1.6,1.6-3.3,3.2-4.8,4.8C153,316.8,142.9,316.8,132.9,316.8L132.9,316.8z
			 M132.9,307.9l1-0.8l-1,0V307.9L132.9,307.9z M170.4,320.5c10.7,0,21.4,0,32.1,0c-1.1,1.6-2.2,3.2-3.3,4.8
			c-1.1,1.6-2.2,3.2-3.3,4.8c-11.5,0-23,0-34.4,0c1.5-1.6,2.9-3.2,4.4-4.8C167.5,323.8,169,322.1,170.4,320.5L170.4,320.5z
			 M213.5,320.5c10.7,0,21.4,0,32.1,0c-0.5,1.6-1.2,3.2-1.7,4.8c-0.6,1.6-1.1,3.2-1.7,4.8c-11.5,0-23,0-34.4,0
			c1-1.6,1.9-3.2,2.9-4.8C211.6,323.7,212.6,322.1,213.5,320.5L213.5,320.5z M256.7,320.5c10.7,0,21.4,0,32.1,0
			c0,1.6-0.1,3.2-0.2,4.7c0,1.6-0.1,3.2-0.1,4.7c-11.5,0-22.9,0-34.3,0c0.4-1.6,0.8-3.2,1.3-4.7
			C255.8,323.7,256.3,322.1,256.7,320.5L256.7,320.5z M299.8,320.6c10.6,0,21.3,0,32.1,0c0.4,1.6,0.9,3.1,1.3,4.7
			c0.5,1.6,0.9,3.1,1.3,4.7c-11.5,0-22.9,0-34.3,0c0-1.6-0.1-3.1-0.2-4.7C299.9,323.7,299.9,322.1,299.8,320.6L299.8,320.6z
			 M342.9,320.6c10.7,0,21.4,0,32.1,0c0.9,1.6,1.9,3.1,2.9,4.7c1,1.6,1.9,3.1,2.9,4.7c-11.5,0-23,0-34.4,0c-0.6-1.6-1.2-3.1-1.8-4.7
			C344,323.7,343.5,322.1,342.9,320.6L342.9,320.6z M386,320.6c10.7,0,21.4,0,32.1,0c1.5,1.6,2.9,3.1,4.4,4.7c1.5,1.5,3,3.1,4.4,4.6
			c-11.5,0-23,0-34.4,0c-1.1-1.6-2.2-3.1-3.3-4.7C388.2,323.7,387.1,322.1,386,320.6L386,320.6z M182.6,307.2c9.6,0,19.3,0,28.9,0.1
			c-1.1,1.6-2.2,3.2-3.3,4.8c-1.1,1.6-2.2,3.2-3.3,4.8c-10.4,0-20.8,0-31.2,0c1.5-1.6,3-3.2,4.4-4.8
			C179.7,310.4,181.1,308.8,182.6,307.2L182.6,307.2z M221.5,307.3c9.6,0,19.3,0,28.9,0.1c-0.6,1.6-1.2,3.2-1.7,4.8
			c-0.6,1.6-1.2,3.2-1.7,4.8c-10.4,0-20.8,0-31.2,0c0.9-1.6,2-3.2,2.9-4.8C219.6,310.5,220.5,308.9,221.5,307.3L221.5,307.3z
			 M260.4,307.4c9.6,0,19.2,0,28.9,0.1c0,1.6-0.1,3.2-0.1,4.7c0,1.6-0.1,3.2-0.2,4.7c-10.4,0-20.8,0-31.2,0c0.4-1.6,0.9-3.2,1.3-4.7
			C259.5,310.5,259.9,308.9,260.4,307.4L260.4,307.4z M299.2,307.4c9.6,0,19.3,0,28.9,0.1c0.5,1.6,0.9,3.1,1.4,4.7
			c0.4,1.6,0.9,3.1,1.4,4.7c-10.4,0-20.8,0-31.2,0c-0.1-1.6-0.1-3.1-0.2-4.7C299.3,310.6,299.3,309,299.2,307.4L299.2,307.4z
			 M338,307.5c9.6,0,19.3,0,28.9,0.1c1,1.6,1.9,3.1,2.9,4.7c1,1.5,1.9,3.1,2.9,4.7c-10.4,0-20.8,0-31.2,0c-0.6-1.6-1.2-3.1-1.8-4.7
			C339.2,310.6,338.6,309.1,338,307.5L338,307.5z M376.9,307.6c9.6,0,19.3,0,28.9,0.1c1.5,1.6,3,3.1,4.4,4.7c1.5,1.5,3,3.1,4.5,4.6
			c-10.4,0-20.8,0-31.2,0c-1.1-1.6-2.2-3.1-3.3-4.7C379,310.7,378,309.1,376.9,307.6z M132.9,307.1v0.8c-1.8,1.4-3.6,2.7-5.4,4.1
			c-2.1,1.6-4.2,3.2-6.4,4.8l-5.3,0v-9.7L132.9,307.1L132.9,307.1z M132.9,316c-0.3,0.3-0.7,0.5-1,0.8h1V316L132.9,316z
			 M132.9,320.5v9.6l-17,0v-0.3c1.9-1.5,3.7-3,5.6-4.5c1.9-1.6,3.9-3.2,5.9-4.8H132.9L132.9,320.5z M115.8,320.8l0.4-0.3h-0.4V320.8
			z M115.8,307.1v9.7c-8.6,0-17.2,0-25.8,0c2.5-1.6,5-3.2,7.5-4.8c2.5-1.6,5-3.2,7.5-4.9L115.8,307.1L115.8,307.1z M115.8,320.5v0.3
			c-1.9,1.5-3.9,3-5.9,4.5c-2.1,1.6-4.2,3.2-6.3,4.8c-11.5,0-22.9,0-34.3,0c2.5-1.6,5-3.2,7.5-4.8c2.5-1.6,5-3.2,7.4-4.9
			C94.7,320.5,105.3,320.5,115.8,320.5L115.8,320.5z M115.8,329.9l-0.4,0.3h0.4V329.9z"/>
		<rect x="241.8" y="354.4" class="st3" width="107.8" height="5"/>
	</g>
</g>
<g id="Layer_2">
	<circle class="st5" cx="747" cy="230" r="106"/>
	<g>
		<ellipse class="st18" cx="746.5" cy="282" rx="77.5" ry="6"/>
		<g>
			<path class="st19" d="M794.8,183.6c0,0-1.7-7.9-12.8-7.9h-34.7h0h-34.7c-11.2,0-12.8,7.9-12.8,7.9l-10.3,64.1h57.9h0h57.9
				L794.8,183.6z"/>
			<g>
				<g>
					<rect x="681.6" y="247.7" class="st20" width="131.3" height="35.6"/>
					<rect x="688.7" y="252.9" class="st21" width="117.1" height="25.2"/>
				</g>
				<g>
					<path class="st22" d="M754.7,265.5c0,4.1-3.3,7.4-7.4,7.4c-4.1,0-7.4-3.3-7.4-7.4c0-4.1,3.3-7.4,7.4-7.4
						C751.3,258.1,754.7,261.4,754.7,265.5z"/>
					<rect x="746.2" y="261.3" class="st23" width="2.1" height="8.4"/>
				</g>
			</g>
			<rect x="713.7" y="163.6" class="st19" width="15.3" height="12.1"/>
			<rect x="747.2" y="179.6" class="st23" width="33.7" height="3.1"/>
			<path class="st23" d="M790.9,197.8c0,5.1-4.1,9.2-9.2,9.2h-69.1c-5.1,0-9.2-4.1-9.2-9.2v-0.8c0-5.1,4.1-9.2,9.2-9.2h69.1
				c5.1,0,9.2,4.1,9.2,9.2V197.8z"/>
			<path class="st24" d="M782.1,197.7c0,3.5-3.3,6.4-7.3,6.4h-55.3c-4,0-7.3-2.9-7.3-6.4v-0.5c0-3.5,3.3-6.4,7.3-6.4h55.3
				c4,0,7.3,2.9,7.3,6.4V197.7z"/>
			<g>
				<rect x="703.9" y="214.7" class="st25" width="9.9" height="9.9"/>
				<rect x="719.1" y="214.7" class="st26" width="9.9" height="9.9"/>
				<rect x="734.4" y="214.7" class="st9" width="9.9" height="9.9"/>
				<rect x="749.7" y="214.7" class="st9" width="9.9" height="9.9"/>
				<rect x="764.9" y="214.7" class="st9" width="9.9" height="9.9"/>
				<rect x="780.2" y="214.7" class="st9" width="9.9" height="9.9"/>
			</g>
			<g>
				<rect x="703.9" y="230" class="st27" width="9.9" height="9.9"/>
				<rect x="719.1" y="230" class="st28" width="9.9" height="9.9"/>
				<rect x="734.4" y="230" class="st9" width="9.9" height="9.9"/>
				<rect x="749.7" y="230" class="st9" width="9.9" height="9.9"/>
				<rect x="764.9" y="230" class="st9" width="9.9" height="9.9"/>
				<rect x="780.2" y="230" class="st9" width="9.9" height="9.9"/>
			</g>
			<g>
				<path class="st19" d="M754,105.6c0.1,0-31.8-12.2-32.6-12.5c-0.6,0.3-32.6,12.5-32.6,12.5v23c0,16,4.6,36.8,32.6,44.6
					c27.9-7.8,32.5-29,32.5-44.6C754,120.7,754,105.6,754,105.6z"/>
				<path class="st20" d="M688.9,128.6c0,16,4.6,36.8,32.6,44.6V93c-1.2,0.4-32.6,12.5-32.6,12.5S688.9,128.6,688.9,128.6z"/>
				<path class="st21" d="M747.7,109.9c0.1,0-25.6-10.3-26.3-10.6c-0.6,0.2-26.4,10.1-26.3,10.1v19.4c0,13.4,2.6,31.7,26.3,38.2
					c23.6-6.5,26.3-25.1,26.3-38.2C747.7,122.1,747.7,109.9,747.7,109.9z"/>
				<path class="st29" d="M721.4,99.3c-0.6,0.2-26.4,10.1-26.3,10.1v19.4c0,13.4,2.6,31.7,26.3,38.2V99.3z"/>
				<g>
					<g>
						<path class="st19" d="M722,122.4l-0.1,2.5h1.5l-0.1-2.5c0.3-0.2,0.5-0.6,0.5-1c0-0.7-0.5-1.2-1.2-1.2c-0.7,0-1.2,0.5-1.2,1.2
							C721.5,121.8,721.7,122.2,722,122.4z"/>
						<path class="st19" d="M729.7,112.2h-14.3c-1.8,0-3.4,1.4-3.7,3.1c-1.3,0.5-2.3,1.8-2.3,3.3v8.2c0,1.9,1.6,3.5,3.5,3.5h14.3
							c1.7,0,3.1-1.2,3.4-2.7c1.5-0.5,2.7-1.9,2.7-3.5v-8.2C733.4,113.9,731.8,112.2,729.7,112.2z M731.7,124.1c0,1.1-0.9,2-2,2
							h-14.3c-1.1,0-2-0.9-2-2v-5.1h18.4V124.1z M731.7,116.1h-18.4v-0.1c0-1.1,0.9-2,2-2h14.3c1.1,0,2,0.9,2,2V116.1z"/>
					</g>
					<g>
						<g>
							<path class="st19" d="M707.3,142.3c0,0.2-0.1,0.3-0.2,0.5c-0.1,0.2-0.2,0.3-0.3,0.4c-0.5,0-1-0.2-1.2-0.6
								c-0.5,0.5-1,0.7-1.6,0.7c-0.3,0-0.6,0-0.8-0.1c-0.2-0.1-0.4-0.2-0.6-0.4c-0.2-0.2-0.3-0.3-0.3-0.6c-0.1-0.2-0.1-0.4-0.1-0.7
								c0-0.3,0.1-0.6,0.2-0.9c0.1-0.3,0.3-0.5,0.5-0.6c0.2-0.2,0.5-0.3,0.7-0.4c0.3-0.1,0.6-0.1,0.9-0.1c0.2,0,0.3,0,0.5,0
								c0.1,0,0.3,0,0.4,0v-0.2c0-0.5-0.3-0.7-0.8-0.7c-0.3,0-0.9,0.1-1.7,0.4c-0.2-0.3-0.4-0.7-0.4-1.3c0.2-0.1,0.4-0.1,0.6-0.2
								c0.2-0.1,0.5-0.1,0.7-0.2c0.2,0,0.5-0.1,0.7-0.1c0.2,0,0.4,0,0.6,0c0.3,0,0.5,0,0.8,0.1c0.3,0.1,0.5,0.2,0.7,0.4
								c0.2,0.2,0.3,0.4,0.5,0.6c0.1,0.3,0.2,0.5,0.2,0.9v2.3C707,141.9,707.1,142.1,707.3,142.3z M703.8,141.4
								c0,0.4,0.2,0.5,0.6,0.5c0.2,0,0.5-0.1,0.7-0.3v-0.9c-0.2,0-0.3,0-0.4,0c-0.1,0-0.2,0-0.2,0
								C704,140.7,703.8,140.9,703.8,141.4z"/>
							<path class="st19" d="M709.9,141.8h0.3c0.1,0.3,0.1,0.5,0.1,0.8c0,0.3,0,0.4,0,0.5c-0.5,0.1-0.9,0.1-1.2,0.1
								c-0.5,0-0.9-0.1-1.1-0.4c-0.2-0.3-0.3-0.7-0.3-1.2v-6.9l0.1-0.1h0.7c0.4,0,0.6,0.1,0.8,0.2c0.1,0.2,0.2,0.4,0.2,0.8v5.6
								C709.4,141.6,709.6,141.8,709.9,141.8z"/>
							<path class="st19" d="M712.9,138.7v4.4c-0.1,0-0.3,0-0.4,0.1c-0.2,0-0.3,0-0.5,0c-0.2,0-0.3,0-0.5,0c-0.2,0-0.3,0-0.4-0.1
								v-3.8c0-0.4-0.2-0.7-0.5-0.7h-0.2c0-0.1-0.1-0.4-0.1-0.6c0-0.3,0-0.5,0.1-0.6c0.2,0,0.4,0,0.6,0c0.2,0,0.3,0,0.5,0h0.3
								c0.4,0,0.7,0.1,0.9,0.4C712.8,137.9,712.9,138.2,712.9,138.7z M710.8,135c0.2-0.1,0.5-0.2,0.9-0.2c0.4,0,0.6,0.1,0.8,0.2
								c0.1,0.2,0.1,0.4,0.1,0.7c0,0.2,0,0.5-0.1,0.7c-0.2,0.1-0.5,0.2-0.9,0.2c-0.4,0-0.6-0.1-0.8-0.2c-0.1-0.2-0.1-0.4-0.1-0.7
								C710.7,135.4,710.8,135.2,710.8,135z"/>
							<path class="st19" d="M718.8,142.3c0,0.2-0.1,0.3-0.2,0.5c-0.1,0.2-0.2,0.3-0.3,0.4c-0.5,0-1-0.2-1.2-0.6
								c-0.5,0.5-1,0.7-1.6,0.7c-0.3,0-0.6,0-0.8-0.1c-0.2-0.1-0.4-0.2-0.6-0.4c-0.2-0.2-0.3-0.3-0.3-0.6c-0.1-0.2-0.1-0.4-0.1-0.7
								c0-0.3,0.1-0.6,0.2-0.9c0.1-0.3,0.3-0.5,0.5-0.6c0.2-0.2,0.5-0.3,0.7-0.4c0.3-0.1,0.6-0.1,0.9-0.1c0.2,0,0.3,0,0.5,0
								c0.1,0,0.3,0,0.4,0v-0.2c0-0.5-0.3-0.7-0.8-0.7c-0.3,0-0.9,0.1-1.7,0.4c-0.2-0.3-0.4-0.7-0.4-1.3c0.2-0.1,0.4-0.1,0.6-0.2
								c0.2-0.1,0.5-0.1,0.7-0.2c0.2,0,0.5-0.1,0.7-0.1c0.2,0,0.4,0,0.6,0c0.3,0,0.5,0,0.8,0.1c0.3,0.1,0.5,0.2,0.7,0.4
								c0.2,0.2,0.3,0.4,0.5,0.6c0.1,0.3,0.2,0.5,0.2,0.9v2.3C718.4,141.9,718.5,142.1,718.8,142.3z M715.3,141.4
								c0,0.4,0.2,0.5,0.6,0.5c0.2,0,0.5-0.1,0.7-0.3v-0.9c-0.2,0-0.3,0-0.4,0c-0.1,0-0.2,0-0.2,0
								C715.5,140.7,715.3,140.9,715.3,141.4z"/>
							<path class="st19" d="M719.1,142.7c0-0.2,0.1-0.4,0.2-0.7c0.1-0.2,0.2-0.4,0.3-0.6c0.6,0.3,1.2,0.5,1.6,0.5
								c0.2,0,0.4,0,0.5-0.1c0.1-0.1,0.2-0.2,0.2-0.3c0-0.2-0.2-0.4-0.5-0.5l-0.6-0.2c-1-0.4-1.4-0.9-1.4-1.7c0-0.6,0.2-1,0.6-1.4
								c0.4-0.3,0.9-0.5,1.6-0.5c0.3,0,0.7,0,1.1,0.1c0.4,0.1,0.7,0.2,1,0.3c0,0.2,0,0.5-0.1,0.7c-0.1,0.3-0.2,0.4-0.4,0.5
								c-0.6-0.3-1.2-0.4-1.6-0.4c-0.2,0-0.3,0-0.4,0.1c-0.1,0.1-0.1,0.2-0.1,0.3c0,0.2,0.1,0.3,0.4,0.4l0.7,0.3
								c1,0.4,1.5,1,1.5,1.9c0,0.6-0.2,1-0.6,1.4c-0.4,0.3-1,0.5-1.8,0.5S719.7,143.1,719.1,142.7z"/>
						</g>
						<g>
							<path class="st30" d="M727.5,143.2c-0.4,0-0.7-0.1-1.1-0.2v1.5c0,0.4-0.1,0.7-0.2,0.8c-0.1,0.2-0.4,0.2-0.8,0.2h-0.7
								l-0.1-0.1v-8.2l0.1-0.1h0.5c0.4,0,0.8,0.2,1,0.6c0.4-0.4,1-0.7,1.6-0.7c0.3,0,0.6,0.1,0.9,0.2c0.2,0.1,0.5,0.3,0.6,0.6
								c0.2,0.3,0.3,0.6,0.4,0.9c0.1,0.4,0.1,0.8,0.1,1.2c0,0.5-0.1,0.9-0.2,1.3c-0.1,0.4-0.3,0.7-0.5,1c-0.2,0.3-0.5,0.5-0.7,0.6
								C728.1,143.2,727.8,143.2,727.5,143.2z M727.3,138.6c-0.3,0-0.6,0.2-0.8,0.5v2.5c0.3,0.2,0.5,0.3,0.8,0.3
								c0.5,0,0.8-0.6,0.8-1.7C728,139.1,727.7,138.6,727.3,138.6z"/>
							<path class="st30" d="M735.4,142.3c0,0.2-0.1,0.3-0.2,0.5c-0.1,0.2-0.2,0.3-0.3,0.4c-0.5,0-1-0.2-1.2-0.6
								c-0.5,0.5-1,0.7-1.6,0.7c-0.3,0-0.6,0-0.8-0.1c-0.2-0.1-0.4-0.2-0.6-0.4c-0.2-0.2-0.3-0.3-0.3-0.6c-0.1-0.2-0.1-0.4-0.1-0.7
								c0-0.3,0.1-0.6,0.2-0.9c0.1-0.3,0.3-0.5,0.5-0.6c0.2-0.2,0.5-0.3,0.7-0.4c0.3-0.1,0.6-0.1,0.9-0.1c0.2,0,0.3,0,0.5,0
								c0.1,0,0.3,0,0.4,0v-0.2c0-0.5-0.3-0.7-0.8-0.7c-0.3,0-0.9,0.1-1.7,0.4c-0.2-0.3-0.4-0.7-0.4-1.3c0.2-0.1,0.4-0.1,0.6-0.2
								c0.2-0.1,0.5-0.1,0.7-0.2c0.2,0,0.5-0.1,0.7-0.1c0.2,0,0.4,0,0.6,0c0.3,0,0.5,0,0.8,0.1c0.3,0.1,0.5,0.2,0.7,0.4
								c0.2,0.2,0.3,0.4,0.5,0.6c0.1,0.3,0.2,0.5,0.2,0.9v2.3C735.1,141.9,735.2,142.1,735.4,142.3z M731.9,141.4
								c0,0.4,0.2,0.5,0.6,0.5c0.2,0,0.5-0.1,0.7-0.3v-0.9c-0.2,0-0.3,0-0.4,0c-0.1,0-0.2,0-0.2,0
								C732.1,140.7,731.9,140.9,731.9,141.4z"/>
							<path class="st30" d="M740.9,137.5l-1.4,5.4c-0.2,0.8-0.5,1.5-0.9,1.9c-0.4,0.5-1.1,0.8-2,0.8c-0.5,0-0.9-0.1-1.4-0.2
								c0-0.2,0-0.4,0.1-0.7c0.1-0.3,0.2-0.5,0.3-0.6c0.3,0.1,0.7,0.2,1,0.2c0.6,0,0.9-0.3,1.1-0.9l0-0.2c-0.7,0-1.1-0.2-1.2-0.7
								l-1.3-5c0.4-0.2,0.7-0.2,1-0.2c0.3,0,0.5,0.1,0.7,0.2c0.1,0.1,0.2,0.3,0.3,0.6l0.5,2.2c0.1,0.2,0.1,0.7,0.3,1.5
								c0,0.1,0,0.1,0.1,0.1l1-4.5c0.2-0.1,0.4-0.1,0.8-0.1c0.4,0,0.7,0,0.9,0.1L740.9,137.5z"/>
						</g>
						<g>
							<path class="st30" d="M716.4,148.7c0-0.1,0-0.1,0.1-0.2c0.2,0.1,0.3,0.2,0.5,0.2c0.1,0,0.2,0,0.2-0.1c0.1,0,0.1-0.1,0.1-0.2
								c0-0.1-0.1-0.2-0.2-0.3l-0.3-0.1c-0.2-0.1-0.3-0.2-0.3-0.4c0-0.1,0-0.1,0-0.2s0.1-0.1,0.1-0.2c0,0,0.1-0.1,0.2-0.1
								c0.1,0,0.1,0,0.2,0c0.2,0,0.3,0,0.5,0.1c0,0.1,0,0.1-0.1,0.2c-0.2-0.1-0.3-0.1-0.4-0.1c-0.1,0-0.2,0-0.2,0.1
								c-0.1,0-0.1,0.1-0.1,0.2c0,0.1,0,0.1,0.1,0.1c0,0,0.1,0.1,0.2,0.1l0.3,0.1c0.1,0.1,0.2,0.1,0.3,0.2c0.1,0.1,0.1,0.2,0.1,0.3
								c0,0.1-0.1,0.3-0.2,0.4c-0.1,0.1-0.3,0.1-0.5,0.1C716.8,148.9,716.6,148.9,716.4,148.7z"/>
							<path class="st30" d="M718.8,148.4h-0.7c0,0.1,0,0.2,0.1,0.3c0,0.1,0.1,0.1,0.2,0.1c0,0,0.1,0,0.2,0c0.1,0,0.1,0,0.2-0.1
								c0,0,0.1,0.1,0.1,0.2c-0.1,0.1-0.3,0.1-0.5,0.1c-0.1,0-0.2,0-0.2,0c-0.1,0-0.1-0.1-0.2-0.1c0-0.1-0.1-0.1-0.1-0.2
								c0-0.1,0-0.2,0-0.3c0-0.1,0-0.2,0-0.3c0-0.1,0.1-0.1,0.1-0.2c0-0.1,0.1-0.1,0.2-0.1c0.1,0,0.1,0,0.2,0c0.1,0,0.2,0,0.2,0
								c0.1,0,0.1,0.1,0.2,0.1c0,0,0.1,0.1,0.1,0.2c0,0.1,0,0.1,0,0.2C718.9,148.2,718.9,148.2,718.8,148.4
								C718.8,148.3,718.8,148.3,718.8,148.4z M718.4,147.8c-0.2,0-0.2,0.1-0.3,0.4h0.5v0c0-0.1,0-0.2-0.1-0.2
								C718.5,147.9,718.4,147.8,718.4,147.8z"/>
							<path class="st30" d="M719.8,148.1L719.8,148.1c0-0.2-0.1-0.3-0.2-0.3c-0.1,0-0.1,0-0.2,0.1c0,0.1-0.1,0.2-0.1,0.3
								c0,0.3,0.1,0.4,0.3,0.4c0.1,0,0.2,0,0.3-0.1c0,0,0,0,0.1,0.1c0,0,0,0.1,0,0.1c-0.1,0.1-0.3,0.2-0.4,0.2c-0.1,0-0.2,0-0.2,0
								c-0.1,0-0.1-0.1-0.2-0.1c0-0.1-0.1-0.1-0.1-0.2c0-0.1,0-0.2,0-0.3c0-0.1,0-0.2,0-0.3s0.1-0.1,0.1-0.2c0-0.1,0.1-0.1,0.2-0.1
								c0.1,0,0.1,0,0.2,0c0.1,0,0.1,0,0.2,0c0.1,0,0.1,0,0.1,0.1c0,0,0.1,0.1,0.1,0.1c0,0,0,0.1,0,0.1c0,0.1,0,0.1-0.1,0.1
								C719.9,148.2,719.8,148.1,719.8,148.1z"/>
							<path class="st30" d="M720.3,148.5v-0.6c0-0.1,0-0.2,0-0.2c0,0,0.1-0.1,0.2-0.1c0.1,0,0.1,0.1,0.1,0.2v0.6c0,0.1,0,0.1,0,0.2
								c0,0,0.1,0.1,0.1,0.1s0.1,0,0.2,0c0.1,0,0.1-0.1,0.2-0.1v-0.9c0,0,0.1,0,0.1,0c0,0,0.1,0,0.1,0v0.9c0,0.1,0,0.2,0.1,0.2
								c0,0.1-0.1,0.1-0.1,0.1c-0.1,0-0.2-0.1-0.2-0.2c-0.1,0.1-0.3,0.2-0.4,0.2c-0.1,0-0.2,0-0.2-0.1
								C720.4,148.7,720.3,148.6,720.3,148.5z"/>
							<path class="st30" d="M721.6,147.8c0-0.1,0-0.1,0.1-0.1c0.1,0,0.2,0.1,0.2,0.2c0.1-0.1,0.2-0.2,0.3-0.2c0,0,0.1,0,0.1,0
								c0,0.1,0,0.2-0.1,0.2c0,0,0,0-0.1,0c-0.1,0-0.2,0.1-0.3,0.2v0.8c0,0-0.1,0-0.1,0c-0.1,0-0.1,0-0.1,0V148
								C721.7,147.9,721.7,147.8,721.6,147.8z"/>
							<path class="st30" d="M723.5,148.4h-0.7c0,0.1,0,0.2,0.1,0.3c0,0.1,0.1,0.1,0.2,0.1c0,0,0.1,0,0.2,0c0.1,0,0.1,0,0.2-0.1
								c0,0,0.1,0.1,0.1,0.2c-0.1,0.1-0.3,0.1-0.5,0.1c-0.1,0-0.2,0-0.2,0c-0.1,0-0.1-0.1-0.2-0.1c0-0.1-0.1-0.1-0.1-0.2
								c0-0.1,0-0.2,0-0.3c0-0.1,0-0.2,0-0.3c0-0.1,0.1-0.1,0.1-0.2c0-0.1,0.1-0.1,0.2-0.1c0.1,0,0.1,0,0.2,0c0.1,0,0.2,0,0.2,0
								c0.1,0,0.1,0.1,0.2,0.1c0,0,0.1,0.1,0.1,0.2c0,0.1,0,0.1,0,0.2C723.5,148.2,723.5,148.2,723.5,148.4
								C723.5,148.3,723.5,148.3,723.5,148.4z M723,147.8c-0.2,0-0.2,0.1-0.3,0.4h0.5v0c0-0.1,0-0.2-0.1-0.2
								C723.2,147.9,723.1,147.8,723,147.8z"/>
							<path class="st30" d="M725.4,148.8C725.4,148.8,725.3,148.8,725.4,148.8c-0.1,0.1-0.2,0.1-0.2,0.1c0,0-0.1,0-0.1,0
								c0,0-0.1,0-0.1,0c0,0-0.1,0-0.2,0c-0.1,0-0.2,0-0.4,0l0,0v-1.7l0,0c0.1,0,0.3,0,0.5,0c0.1,0,0.2,0,0.3,0.1
								c0.1,0,0.2,0.1,0.2,0.2c0.1,0.1,0.1,0.2,0.1,0.3c0,0.1,0,0.2,0,0.3c0,0.2,0,0.3-0.1,0.4C725.6,148.6,725.5,148.7,725.4,148.8
								z M725,147.4h-0.3v1.3h0.3c0.3,0,0.4-0.2,0.4-0.6c0-0.2,0-0.4-0.1-0.5C725.2,147.5,725.1,147.4,725,147.4z"/>
							<path class="st30" d="M726.3,147.9v1c0,0-0.1,0-0.1,0c-0.1,0-0.1,0-0.1,0V148c0,0,0-0.1,0-0.1c0,0,0,0-0.1,0h0
								c0,0,0-0.1,0-0.1s0-0.1,0-0.1c0.1,0,0.1,0,0.2,0h0c0.1,0,0.1,0,0.1,0.1C726.3,147.8,726.3,147.8,726.3,147.9z M726,147.4
								c0,0,0-0.1,0-0.1c0-0.1,0-0.1,0-0.1c0,0,0.1,0,0.1,0c0.1,0,0.1,0,0.1,0c0,0,0,0.1,0,0.1c0,0.1,0,0.1,0,0.1c0,0-0.1,0-0.1,0
								C726,147.5,726,147.5,726,147.4z"/>
							<path class="st30" d="M727.4,147.8c0-0.1,0.1-0.1,0.2-0.1c0,0,0,0,0.1,0.1c0,0,0,0.1,0,0.1c0,0-0.1,0.1-0.1,0.2v0.7
								c0,0.1,0,0.2,0,0.3c0,0.1-0.1,0.2-0.1,0.2c0,0.1-0.1,0.1-0.2,0.1c-0.1,0-0.1,0-0.2,0c-0.1,0-0.3,0-0.4-0.1
								c0-0.1,0-0.1,0.1-0.2c0.1,0.1,0.2,0.1,0.3,0.1c0.1,0,0.2,0,0.2-0.1c0-0.1,0.1-0.1,0.1-0.3v-0.1c-0.1,0.1-0.2,0.1-0.3,0.1
								c-0.1,0-0.2-0.1-0.3-0.2c-0.1-0.1-0.1-0.3-0.1-0.5c0-0.1,0-0.2,0-0.3c0-0.1,0.1-0.1,0.1-0.2c0-0.1,0.1-0.1,0.2-0.1
								c0.1,0,0.1,0,0.2,0C727.2,147.6,727.3,147.7,727.4,147.8z M727.3,148.6V148c-0.1-0.1-0.2-0.1-0.2-0.1c-0.1,0-0.1,0-0.2,0.1
								c0,0.1-0.1,0.2-0.1,0.3c0,0.1,0,0.3,0.1,0.3c0,0.1,0.1,0.1,0.2,0.1C727.2,148.7,727.3,148.7,727.3,148.6z"/>
							<path class="st30" d="M728.3,147.9v1c0,0-0.1,0-0.1,0c-0.1,0-0.1,0-0.1,0V148c0,0,0-0.1,0-0.1c0,0,0,0-0.1,0h0
								c0,0,0-0.1,0-0.1s0-0.1,0-0.1c0.1,0,0.1,0,0.2,0h0c0.1,0,0.1,0,0.1,0.1C728.2,147.8,728.3,147.8,728.3,147.9z M727.9,147.4
								c0,0,0-0.1,0-0.1c0-0.1,0-0.1,0-0.1c0,0,0.1,0,0.1,0c0.1,0,0.1,0,0.1,0c0,0,0,0.1,0,0.1c0,0.1,0,0.1,0,0.1c0,0-0.1,0-0.1,0
								C728,147.5,728,147.5,727.9,147.4z"/>
							<path class="st30" d="M729.2,147.7C729.2,147.7,729.2,147.7,729.2,147.7c0,0.1,0,0.2,0,0.2l-0.3,0v0.7c0,0.1,0,0.1,0.1,0.1
								h0.2c0,0,0,0.1,0,0.1c0,0,0,0.1,0,0.1c-0.1,0-0.2,0-0.3,0c-0.2,0-0.3-0.1-0.3-0.3v-0.8l-0.2,0c0,0,0-0.1,0-0.1s0-0.1,0-0.1
								l0.2,0v-0.2c0-0.1,0-0.1,0-0.1c0,0,0.1,0,0.1,0h0.1l0,0v0.4L729.2,147.7z"/>
							<path class="st30" d="M730.5,148.8c0,0.1-0.1,0.1-0.1,0.1c-0.1,0-0.2-0.1-0.2-0.2c-0.1,0.1-0.2,0.2-0.4,0.2
								c-0.1,0-0.1,0-0.2,0c0,0-0.1,0-0.1-0.1c0,0-0.1-0.1-0.1-0.1c0,0,0-0.1,0-0.1c0-0.1,0-0.2,0.1-0.3c0.1-0.1,0.2-0.1,0.3-0.1
								c0,0,0.1,0,0.1,0c0,0,0.1,0,0.1,0v-0.1c0-0.1-0.1-0.2-0.2-0.2c-0.1,0-0.2,0-0.4,0.1c0,0-0.1-0.1-0.1-0.2
								c0.2-0.1,0.3-0.1,0.5-0.1c0.1,0,0.2,0,0.3,0.1c0.1,0.1,0.1,0.2,0.1,0.3v0.5C730.4,148.7,730.4,148.7,730.5,148.8z
								 M729.8,148.7c0.1,0,0.2,0,0.3-0.1v-0.2c0,0-0.1,0-0.1,0c0,0-0.1,0-0.1,0c-0.1,0-0.1,0-0.2,0.1c0,0-0.1,0.1-0.1,0.1
								c0,0.1,0,0.1,0,0.1C729.7,148.7,729.8,148.7,729.8,148.7z"/>
							<path class="st30" d="M731.1,148.7L731.1,148.7c0.1,0,0.1,0.1,0.1,0.1c0,0,0,0.1,0,0.1c-0.1,0-0.1,0-0.2,0
								c-0.2,0-0.2-0.1-0.2-0.3v-1.6l0,0h0.1c0.1,0,0.1,0,0.1,0c0,0,0,0.1,0,0.1v1.4C731,148.7,731,148.7,731.1,148.7z"/>
							<path class="st30" d="M732.2,148.8l-0.3-1.6c0,0,0.1,0,0.1,0c0,0,0.1,0,0.1,0c0,0,0,0.1,0,0.1l0.2,0.8c0,0.2,0.1,0.4,0.1,0.5
								c0,0,0,0,0,0l0.3-1.4c0.1,0,0.1,0,0.2,0c0.1,0,0.1,0,0.2,0l0.2,1.4c0,0,0,0,0,0c0-0.1,0-0.3,0.1-0.5l0.2-1c0,0,0.1,0,0.1,0
								c0,0,0.1,0,0.1,0l0,0l-0.4,1.7c-0.1,0-0.1,0-0.2,0c-0.1,0-0.1,0-0.1,0c0,0,0-0.1-0.1-0.1l-0.1-0.7c0-0.2-0.1-0.4-0.1-0.6h0
								c0,0.2-0.1,0.4-0.1,0.6l-0.2,0.8c-0.1,0-0.1,0-0.2,0c-0.1,0-0.1,0-0.1,0C732.3,148.9,732.3,148.8,732.2,148.8z"/>
							<path class="st30" d="M735,148.8c0,0.1-0.1,0.1-0.1,0.1c-0.1,0-0.2-0.1-0.2-0.2c-0.1,0.1-0.2,0.2-0.4,0.2c-0.1,0-0.1,0-0.2,0
								c0,0-0.1,0-0.1-0.1c0,0-0.1-0.1-0.1-0.1c0,0,0-0.1,0-0.1c0-0.1,0-0.2,0.1-0.3c0.1-0.1,0.2-0.1,0.3-0.1c0,0,0.1,0,0.1,0
								c0,0,0.1,0,0.1,0v-0.1c0-0.1-0.1-0.2-0.2-0.2c-0.1,0-0.2,0-0.4,0.1c0,0-0.1-0.1-0.1-0.2c0.2-0.1,0.3-0.1,0.5-0.1
								c0.1,0,0.2,0,0.3,0.1c0.1,0.1,0.1,0.2,0.1,0.3v0.5C735,148.7,735,148.7,735,148.8z M734.4,148.7c0.1,0,0.2,0,0.3-0.1v-0.2
								c0,0-0.1,0-0.1,0c0,0-0.1,0-0.1,0c-0.1,0-0.1,0-0.2,0.1c0,0-0.1,0.1-0.1,0.1c0,0.1,0,0.1,0,0.1
								C734.3,148.7,734.4,148.7,734.4,148.7z"/>
							<path class="st30" d="M735.7,148.7L735.7,148.7c0.1,0,0.1,0.1,0.1,0.1c0,0,0,0.1,0,0.1c-0.1,0-0.1,0-0.2,0
								c-0.2,0-0.2-0.1-0.2-0.3v-1.6l0,0h0.1c0.1,0,0.1,0,0.1,0c0,0,0,0.1,0,0.1v1.4C735.6,148.7,735.6,148.7,735.7,148.7z"/>
							<path class="st30" d="M736.4,148.7L736.4,148.7c0.1,0,0.1,0.1,0.1,0.1c0,0,0,0.1,0,0.1c-0.1,0-0.1,0-0.2,0
								c-0.2,0-0.2-0.1-0.2-0.3v-1.6l0,0h0.1c0.1,0,0.1,0,0.1,0c0,0,0,0.1,0,0.1v1.4C736.3,148.7,736.3,148.7,736.4,148.7z"/>
							<path class="st30" d="M737.7,148.4h-0.7c0,0.1,0,0.2,0.1,0.3c0,0.1,0.1,0.1,0.2,0.1c0,0,0.1,0,0.2,0c0.1,0,0.1,0,0.2-0.1
								c0,0,0.1,0.1,0.1,0.2c-0.1,0.1-0.3,0.1-0.5,0.1c-0.1,0-0.2,0-0.2,0c-0.1,0-0.1-0.1-0.2-0.1c0-0.1-0.1-0.1-0.1-0.2
								c0-0.1,0-0.2,0-0.3c0-0.1,0-0.2,0-0.3c0-0.1,0.1-0.1,0.1-0.2c0-0.1,0.1-0.1,0.2-0.1c0.1,0,0.1,0,0.2,0s0.2,0,0.2,0
								c0.1,0,0.1,0.1,0.2,0.1c0,0,0.1,0.1,0.1,0.2c0,0.1,0,0.1,0,0.2C737.7,148.2,737.7,148.2,737.7,148.4
								C737.7,148.3,737.7,148.3,737.7,148.4z M737.2,147.8c-0.2,0-0.2,0.1-0.3,0.4h0.5v0c0-0.1,0-0.2-0.1-0.2
								C737.3,147.9,737.3,147.8,737.2,147.8z"/>
							<path class="st30" d="M738.6,147.7C738.6,147.7,738.6,147.7,738.6,147.7c0,0.1,0,0.2,0,0.2l-0.3,0v0.7c0,0.1,0,0.1,0.1,0.1
								h0.2c0,0,0,0.1,0,0.1c0,0,0,0.1,0,0.1c-0.1,0-0.2,0-0.3,0c-0.2,0-0.3-0.1-0.3-0.3v-0.8l-0.2,0c0,0,0-0.1,0-0.1s0-0.1,0-0.1
								l0.2,0v-0.2c0-0.1,0-0.1,0-0.1c0,0,0.1,0,0.1,0h0.1l0,0v0.4L738.6,147.7z"/>
						</g>
					</g>
				</g>
			</g>
			<polygon class="st31" points="778.9,150.4 776.7,149.6 774.6,150.4 772.5,149.6 770.4,150.4 768.3,149.6 766.2,150.4 
				764.1,149.6 762,150.4 759.9,149.6 757.8,150.4 755.7,149.6 753.6,150.4 751.5,149.6 749.3,150.4 747.2,149.6 747.2,180.1 
				749.2,180.1 749.5,180.1 751.5,180.1 753.4,180.1 753.7,180.1 755.7,180.1 757.6,180.1 757.9,180.1 759.9,180.1 761.8,180.1 
				762.2,180.1 764.1,180.1 766,180.1 766.4,180.1 768.3,180.1 770.2,180.1 770.6,180.1 772.5,180.1 774.5,180.1 774.8,180.1 
				776.7,180.1 778.7,180.1 779,180.1 781,180.1 781,149.6 			"/>
		</g>
	</g>
	<g>
		<path class="st19" d="M595.6,269.5c-3.5,0-10.4-0.6-14.5-4.6c-5.8-5.8-5.6-15.2-5.5-17.1v-46.6l0.1-0.3c0-0.5,0.1-2.4-1.6-4.1
			c-0.7-0.7-2.7-0.8-3.3-0.7l-0.4,0.1H369.7v-11h200c1.9-0.2,7.9-0.4,12.2,3.8c5.1,5.1,4.9,11.1,4.7,13.1l0,46.1
			c-0.1,2,0.3,6.7,2.3,8.7c0.9,0.9,5.1,1.5,7.8,1.3l0.4,0h84.5v11h-84.4C596.8,269.5,596.3,269.5,595.6,269.5z"/>
	</g>
	<g>
		<path class="st32" d="M390,185.2v12.6c0,2.1-1.5,4-3.6,4.4l-16.4,1.3v-24l16.4,1.3C388.5,181.2,390,183,390,185.2z"/>
		<rect x="358" y="189" transform="matrix(6.123234e-17 -1 1 6.123234e-17 180 563)" class="st2" width="27" height="5"/>
	</g>
	<g>
		<path class="st32" d="M661,269.8v-12.6c0-2.1,1.5-4,3.6-4.4l16.4-1.3v24l-16.4-1.3C662.5,273.8,661,272,661,269.8z"/>
		<rect x="666" y="261" transform="matrix(-1.836970e-16 1 -1 -1.836970e-16 943 -416)" class="st2" width="27" height="5"/>
	</g>
	<polygon class="st19" points="659.1,278.5 645.1,295.2 649.1,295.9 642.1,310 657.9,292.3 653.7,291.5 	"/>
	<polygon class="st19" points="636.4,219.2 646.3,238.7 648.6,235.3 658.8,247.3 648.7,225.8 646.3,229.3 	"/>
	<polygon class="st19" points="661.8,225.2 660.1,237.5 662.3,236.6 663.2,245.6 665.4,232.2 663.2,233.1 	"/>
</g>
</svg>
